<?xml version="1.0" standalone="no"?>
<!DOCTYPE svg PUBLIC "-//W3C//DTD SVG 1.1//EN" "http://www.w3.org/Graphics/SVG/1.1/DTD/svg11.dtd" >
<svg xmlns="http://www.w3.org/2000/svg" xmlns:xlink="http://www.w3.org/1999/xlink" version="1.1">
<metadata>
Created by FontForge 20190801 at Mon Nov 29 21:54:22 2021
 By root
</metadata>
<defs>
<font id="GAPtskari-Regular" horiz-adv-x="600" >
  <font-face 
    font-family="GA Ptskari"
    font-weight="400"
    font-stretch="normal"
    units-per-em="1000"
    panose-1="0 0 5 0 0 0 0 0 0 0"
    ascent="800"
    descent="-200"
    bbox="-460 -432 686 732"
    underline-thickness="50"
    underline-position="-100"
    unicode-range="U+0020-2212"
  />
<missing-glyph horiz-adv-x="520" 
d="M97 700h329v-1040h-329v1040zM346 596v34h-171v-34h67v-38h-68v-35h172v35h-68v38h68zM278 423v73h-104v-108h172v35h-68zM208 461h34v-38h-34v38zM346 326v34h-172v-34h68v-39h-68v-34h104v73h68zM346 194v104h-34v-69h-138v-35h172zM346 53v118h-104v-59h36v24h34v-49
h-104v84h-34v-118h172zM346 -127v118h-172v-118h172zM208 -44h104v-48h-104v48zM346 -185v34h-172v-34h72l-72 -49v-34h172v34h-106l73 49h33z" />
    <glyph glyph-name=".notdef" horiz-adv-x="520" 
d="M97 700h329v-1040h-329v1040zM346 596v34h-171v-34h67v-38h-68v-35h172v35h-68v38h68zM278 423v73h-104v-108h172v35h-68zM208 461h34v-38h-34v38zM346 326v34h-172v-34h68v-39h-68v-34h104v73h68zM346 194v104h-34v-69h-138v-35h172zM346 53v118h-104v-59h36v24h34v-49
h-104v84h-34v-118h172zM346 -127v118h-172v-118h172zM208 -44h104v-48h-104v48zM346 -185v34h-172v-34h72l-72 -49v-34h172v34h-106l73 49h33z" />
    <glyph glyph-name="space" unicode=" " horiz-adv-x="250" 
 />
    <glyph glyph-name="A" unicode="A" 
 />
    <glyph glyph-name="B" unicode="B" 
 />
    <glyph glyph-name="C" unicode="C" 
 />
    <glyph glyph-name="D" unicode="D" 
 />
    <glyph glyph-name="E" unicode="E" 
 />
    <glyph glyph-name="F" unicode="F" 
 />
    <glyph glyph-name="G" unicode="G" 
 />
    <glyph glyph-name="H" unicode="H" 
 />
    <glyph glyph-name="I" unicode="I" 
 />
    <glyph glyph-name="J" unicode="J" 
 />
    <glyph glyph-name="K" unicode="K" 
 />
    <glyph glyph-name="L" unicode="L" 
 />
    <glyph glyph-name="M" unicode="M" 
 />
    <glyph glyph-name="N" unicode="N" 
 />
    <glyph glyph-name="O" unicode="O" 
 />
    <glyph glyph-name="P" unicode="P" 
 />
    <glyph glyph-name="Q" unicode="Q" 
 />
    <glyph glyph-name="R" unicode="R" 
 />
    <glyph glyph-name="S" unicode="S" 
 />
    <glyph glyph-name="T" unicode="T" 
 />
    <glyph glyph-name="U" unicode="U" 
 />
    <glyph glyph-name="V" unicode="V" 
 />
    <glyph glyph-name="W" unicode="W" 
 />
    <glyph glyph-name="X" unicode="X" 
 />
    <glyph glyph-name="Y" unicode="Y" 
 />
    <glyph glyph-name="Z" unicode="Z" 
 />
    <glyph glyph-name="a" unicode="a" 
 />
    <glyph glyph-name="b" unicode="b" 
 />
    <glyph glyph-name="c" unicode="c" 
 />
    <glyph glyph-name="d" unicode="d" 
 />
    <glyph glyph-name="e" unicode="e" 
 />
    <glyph glyph-name="f" unicode="f" 
 />
    <glyph glyph-name="g" unicode="g" 
 />
    <glyph glyph-name="h" unicode="h" 
 />
    <glyph glyph-name="i" unicode="i" 
 />
    <glyph glyph-name="j" unicode="j" 
 />
    <glyph glyph-name="k" unicode="k" 
 />
    <glyph glyph-name="l" unicode="l" 
 />
    <glyph glyph-name="m" unicode="m" 
 />
    <glyph glyph-name="n" unicode="n" 
 />
    <glyph glyph-name="o" unicode="o" 
 />
    <glyph glyph-name="p" unicode="p" 
 />
    <glyph glyph-name="q" unicode="q" 
 />
    <glyph glyph-name="r" unicode="r" 
 />
    <glyph glyph-name="s" unicode="s" 
 />
    <glyph glyph-name="t" unicode="t" 
 />
    <glyph glyph-name="u" unicode="u" 
 />
    <glyph glyph-name="v" unicode="v" 
 />
    <glyph glyph-name="w" unicode="w" 
 />
    <glyph glyph-name="x" unicode="x" 
 />
    <glyph glyph-name="y" unicode="y" 
 />
    <glyph glyph-name="z" unicode="z" 
 />
    <glyph glyph-name="uni10D0" unicode="&#x10d0;" horiz-adv-x="172" 
d="M156.5 206.5q27.5 21.5 64.5 24.5q-29 -8 -42.5 -34.5t-19.5 -62.5q-6 -43 -23 -79.5t-58 -50.5q-14 -4 -21 -4q-17 0 -28 9.5t-12 28.5q-30 -12 -50 -12t-31.5 10.5t-11.5 29.5q0 24 16 53q-13 -30 -13 -51q0 -19 10.5 -29t28.5 -10q21 0 51 14q2 33 31 56q11 7 19 7
q7 0 10.5 -4.5t2.5 -12.5q-3 -14 -14.5 -22.5t-31.5 -19.5q-5 -10 -5 -20q0 -14 13 -18l7 -1q11 0 24 8q24 16 33 44t15 71l2 20q6 34 33.5 55.5zM39 55q19 11 26 20l2 5q0 2 -2 2q-3 0 -7 -4q-14 -14 -19 -23z" />
    <glyph glyph-name="uni10D1" unicode="&#x10d1;" horiz-adv-x="222" 
d="M-57.5 397q23.5 -32 64.5 -32q39 0 84 26.5t81 67.5q14 -6 36 -12q10 -3 10 -9q0 -7 -12 -25q-19 -33 -69 -121l-41 -73q-34 -10 -55 -44.5t-21 -72.5q0 -23 9 -43q0 -4 -1 -11t-1 -15q0 -16 7 -24.5t19 -8.5q7 0 14 3q30 11 61 42.5t48 65.5q14 30 14 51q0 27 -17 43
t-46 18q52 92 119 191q14 20 14 31q0 6 -4.5 9.5t-14.5 8.5q-17 6 -29 11.5t-20 12.5q59 83 84 141q16 35 16 58q0 11 -4.5 16.5t-11.5 5.5q-21 0 -46 -28q-42 -46 -62.5 -90.5t-20.5 -78.5q0 -37 22 -50q-34 -39 -79.5 -65t-83.5 -26q-39 0 -62.5 30.5t-23.5 96.5
q-1 -68 22.5 -100zM182 515q0 30 22 75.5t42 71.5q18 23 29 23q7 0 7 -11q0 -14 -11 -42q-25 -63 -82 -142q-7 8 -7 25zM81 37.5v0.5q-22 0 -39 11q9 34 30.5 78.5t46.5 80.5q33 -10 33 -47q0 -28 -17 -63.5t-38 -58.5q-29 -32 -46 -32q-13 0 -13 19q0 9 3 21q17 -10 40 -10
v0.5zM24 98q0 36 19.5 68.5t45.5 40.5q-51 -96 -59 -144q-6 17 -6 35z" />
    <glyph glyph-name="uni10D2" unicode="&#x10d2;" horiz-adv-x="172" 
d="M65.5 -225q-36.5 -46 -86.5 -70.5t-100 -24.5q-60 0 -99.5 30.5t-39.5 79.5q0 59 43.5 116t108 93.5t122.5 36.5q13 0 19 -1q34 28 64.5 76.5t30.5 87.5q0 11 -5 16.5t-14 5.5q-14 0 -28 -17t-18 -48q-2 -14 -9.5 -27t-17.5 -13q-12 0 -12 14q0 8 3.5 18t7.5 17
q18 31 40.5 48t42.5 17q19 0 29 -12t10 -31q0 -38 -31.5 -81.5t-74.5 -74.5q34 -9 55 -34.5t21 -59.5q0 -24 -14 -54q-11 -62 -47.5 -108zM-85 -0.5q-59 -33.5 -99 -90.5t-40 -118q0 -47 28 -75.5t75 -28.5q51 0 104 39t79 102q-32 -20 -84 -20q-30 0 -57 7q-1 1 -0.5 1.5
t1.5 -0.5q26 -6 51 -6q53 0 91 23q21 53 21 96q0 39 -16.5 60.5t-42.5 24.5q-5 -3 -34.5 -20t-58.5 -26q-9 -3 -16 -3q-10 0 -10 5q0 10 29 27q18 11 40 17t41 7l9 8q-52 4 -111 -29.5zM121 -64q0 33 -20 58t-55 33l-11 -7q37 -6 60 -40t18 -86q8 19 8 42zM-65 -20
q0 -2 4 -2q3 0 11 3q35 12 59 33q-36 -5 -59 -20q-15 -8 -15 -14z" />
    <glyph glyph-name="uni10D3" unicode="&#x10d3;" horiz-adv-x="379" 
d="M139 -244q2 1 -5 4q-58 22 -88.5 69t-30.5 112q0 48 16.5 101.5t43.5 99t58 68.5q18 13 33 13q20 0 31 -20q-16 -21 -29 -40t-28 -46q-48 -84 -48 -129q0 -33 26 -33q19 0 47.5 17t64.5 51q39 37 73 90.5t49 108.5q5 20 5 35q0 20 -7.5 32t-22.5 12q-12 0 -32 -12
q-39 -26 -75 -83q-2 4 -8 10q47 65 108.5 107t128.5 42q44 0 66.5 -15.5t22.5 -38.5q0 -17 -13 -33t-36 -25.5t-53 -7.5q-14 1 -25 7t-11 17l2 9l-0.5 0.5l-0.5 0.5h-1q-2 -8 -2 -10q0 -14 16 -20t32 -6q41 0 67 21t26 48q0 24 -22.5 39.5t-67.5 15.5q-69 0 -131.5 -41.5
t-108.5 -106.5q-13 10 -36 10q-27 0 -50 -15q-36 -24 -69 -66t-53.5 -92.5t-20.5 -98.5q0 -71 41 -123t110 -77q6 -2 8 -1zM264.5 123.5q-47.5 -61.5 -88.5 -94.5q-27 -23 -42 -23q-13 0 -13 19q0 31 32 95q24 45 46 78q3 -6 5 -18q-35 -63 -39 -111v-7q0 -15 7 -15
q5 0 12 8q20 20 28.5 54t7.5 67q14 31 35 61t45 47q11 8 19 8q15 0 15 -22q0 -9 -5 -29q-17 -56 -64.5 -117.5zM202 94q-4 -11 -8 -11q-1 0 -1 4q0 6 1 10q7 32 18 59q2 -36 -10 -62z" />
    <glyph glyph-name="uni10D4" unicode="&#x10d4;" horiz-adv-x="189" 
d="M-66 -321q82 55 129 150q37 72 63 153t50 171q3 14 3 24q0 23 -11.5 37.5t-33.5 14.5q-31 0 -54.5 -23.5t-43.5 -58.5q-23 44 -79 71q-1 0 0 -1q52 -27 77 -73q-29 -54 -29 -98q0 -12 1 -18v-1q2 -9 6.5 -15t10.5 -6q5 0 12 6q21 20 21 58q0 25 -9 52q10 34 32.5 66.5
t49.5 32.5q9 0 15 -7t6 -20q0 -9 -3 -21q-14 -62 -46 -158.5t-72 -176.5q-46 -92 -119.5 -144.5t-173.5 -52.5q-81 0 -135 40t-54 111q0 40 15.5 80t41.5 68q1 1 0.5 1.5t-0.5 -0.5q-30 -28 -47 -71.5t-17 -85.5q1 -74 58.5 -117t146.5 -43q107 0 189 55zM51 72
q0 -14 -3 -25q-3 -10 -7 -10q-5 0 -5 11q0 34 9 68q6 -19 6 -44z" />
    <glyph glyph-name="uni10D5" unicode="&#x10d5;" horiz-adv-x="161" 
d="M261 -283q0 56 -41.5 87t-101.5 31q-23 0 -55 -7q17 29 27.5 61t10.5 61q0 61 -47 79q21 14 47 41.5t44 59.5t18 57q0 19 -10.5 30.5t-28.5 11.5q-20 0 -43 -17t-41 -48q-10 -20 -10 -35q0 -14 12 -14q10 0 17.5 13t9.5 27q4 31 18 48t28 17q9 0 14 -5.5t5 -16.5
q0 -39 -31 -87.5t-65 -76.5l-12 1q-20 0 -41 -8q-13 -5 -21 -12t-8 -13q0 -9 15 -9q27 0 71 29q30 -12 30 -54q0 -35 -19 -81.5t-39 -77.5q-64 -31 -139 -86.5t-115 -117.5q-10 -16 -10 -25q0 -12 16 -12q20 0 53 15t59 35q113 86 181 202q32 9 64 9q58 0 97 -29.5t39 -84.5
q0 -38 -21 -87q23 49 23 89zM-11 5q-7 0 -7 3t8 8q7 4 18.5 7t20.5 2q-5 -5 -22 -15q-12 -5 -18 -5zM-77 -318.5q-49 -54.5 -97 -83.5q-36 -22 -55 -22q-11 0 -11 8q0 9 11 24q72 105 239 193q-38 -65 -87 -119.5z" />
    <glyph glyph-name="uni10D6" unicode="&#x10d6;" horiz-adv-x="207" 
d="M272 469q62 105 74 171q1 6 1 16q0 23 -12.5 36t-34.5 13q-25 0 -57 -19t-65 -57q-49 -57 -75.5 -121.5t-26.5 -116.5q0 -25 8 -41t23 -16q16 0 34 17q24 21 47.5 58t40.5 78q4 -5 7 -9t5 -7l-49 -83q-14 -23 -34.5 -57.5t-46.5 -80.5q-47 -16 -98 -16q-55 0 -83 17.5
t-28 42.5q0 24 23.5 42.5t61.5 18.5q7 0 23 -2q13 -2 23 -8.5t10 -16.5q0 -5 -3 -11l1 -2l0.5 0.5l0.5 0.5q4 8 4 12q0 11 -11.5 18t-24.5 9q-16 2 -24 2q-37 0 -61.5 -19.5t-24.5 -44.5q0 -22 21 -39t63 -21q22 -2 33 -2q44 0 91 14l-18 -31q-34 -10 -55 -44.5t-21 -72.5
q0 -23 9 -43q0 -4 -1 -11t-1 -15q0 -16 7 -24.5t19 -8.5q7 0 14 3q30 11 61 42.5t48 65.5q14 30 14 51q0 27 -17 43t-46 18l24 41q51 22 87.5 63t36.5 89q0 20 -7 40zM254 602q0 24 -12 24q-9 0 -20 -18q-16 -29 -16 -59q0 -27 11 -46q-14 -44 -40 -88.5t-42 -59.5
q-10 -10 -19 -10q-15 0 -15 28q0 6 2 20q12 68 48.5 139t82.5 119q43 44 73 44q12 0 19 -8t7 -23q0 -16 -11 -43q-21 -47 -77 -143l-12 18q23 58 21 106zM215 540q0 19 6 37q3 12 6 12q2 0 2 -8q0 -32 -9 -68q-5 12 -5 27zM208 363l50 83q5 -18 5 -33q0 -46 -33 -86t-81 -62
zM75 32.5v0.5q-22 0 -39 11q9 34 30.5 78.5t46.5 80.5q33 -10 33 -47q0 -28 -17 -63.5t-38 -58.5q-29 -32 -46 -32q-13 0 -13 19q0 9 3 21q17 -10 40 -10v0.5zM18 93q0 36 19.5 68.5t45.5 40.5q-51 -96 -59 -144q-6 17 -6 35z" />
    <glyph glyph-name="uni10D7" unicode="&#x10d7;" horiz-adv-x="321" 
d="M189 124q-17 -23 -44 -50q-35 -37 -64 -55.5t-48 -18.5q-13 0 -20.5 9.5t-7.5 26.5q0 20 9 48q18 55 60 107.5t93 83.5q26 15 47 15q15 0 23.5 -8t8.5 -24q0 -39 -55 -102q4 1 13 1q23 35 41 51t34 16q23 0 23 -31q0 -23 -11 -53q62 -29 100 -77q0 -1 -1 -1
q-40 48 -100 75q-30 -75 -78 -136h-58q34 32 63 73t43 73q-27 7 -48 7q-6 -7 -23 -30zM103.5 179q-37.5 -53 -50.5 -94q-6 -19 -6 -30q0 -18 14 -18q13 0 35.5 15t46.5 37q23 22 59 65q-6 0 -14 -2q-45 -47 -88 -66q-9 -4 -17 -4q-11 0 -11 10q0 13 17 27q31 23 77 33
q24 19 45 45t27 48q1 3 1 9q0 8 -5 13t-14 5q-13 0 -34 -12q-45 -28 -82.5 -81zM273 194q0 13 -9 13q-8 0 -21 -12.5t-29 -37.5q22 -1 47 -8q12 29 12 45zM102 122q-7 -6 -7 -9q0 -1 2 -1q4 0 12 4q35 18 52 32q-40 -11 -59 -26z" />
    <glyph glyph-name="uni10D8" unicode="&#x10d8;" horiz-adv-x="211" 
d="M126 20q30 36 55 84t25 84q0 25 -12.5 40t-34.5 15q-38 0 -73.5 -32.5t-58 -78t-22.5 -80.5q0 -13 6.5 -22.5t14.5 -9.5q14 0 24 22q10 20 10 50q0 10 -2 30q14 34 43.5 73.5t55.5 39.5q11 0 18 -8t7 -23q0 -37 -39 -98t-90 -106q62 13 107 20h-34zM50 59q-3 -10 -7 -10
q-5 0 -3 16q6 28 16 51q3 -28 -6 -57z" />
    <glyph glyph-name="uni10D9" unicode="&#x10d9;" horiz-adv-x="258" 
d="M211.5 33q25.5 -29 25.5 -72q0 -16 -2 -24q-10 -55 -52 -100t-104 -70.5t-128 -25.5q-50 0 -92 14q-51 17 -80 53.5t-29 75.5q0 21 9 38.5t27 29.5q24 15 49 15q28 0 48 -16.5t20 -41.5q0 -22 -16 -45q14 21 14 42q0 25 -19 41t-46 16q-24 0 -46 -13q-36 -23 -36 -64
q0 -37 29 -71.5t81 -50.5q39 -12 79 -12q60 0 116 24.5t94.5 67t48.5 93.5q3 16 3 30q0 37 -19 60t-43 27q-41 -29 -87 -46q-23 -9 -44 -9q-23 0 -23 13q0 11 21 25q19 12 48 21t54 11q50 39 88 99t38 97q0 15 -10 15q-3 0 -11 -3q-4 -1 -1 2q13 13 25 13q8 0 12.5 -8
t4.5 -23q0 -40 -31.5 -99.5t-69.5 -93.5q29 -6 54.5 -35zM98 55q-21 -1 -42.5 -7t-35.5 -15q-11 -5 -11 -12q0 -6 9 -6q6 0 13 3q43 16 67 37z" />
    <glyph glyph-name="uni10DA" unicode="&#x10da;" horiz-adv-x="691" 
d="M667.5 219q18.5 -5 18.5 -23q0 -12 -11 -30q-4 -6 -20.5 -31t-28.5 -51.5t-12 -44.5q0 -35 44 -36q-8 -1 -22 -1q-61 0 -61 40q0 25 19 57.5t50 74.5q9 12 9 22q0 19 -36 21q-53 2 -136 -8.5t-171.5 -33t-154.5 -54.5q-63 -30 -98.5 -75.5t-35.5 -100.5q0 -28 9 -56
q65 -13 116.5 -30t104.5 -46q26 -15 39.5 -29.5t13.5 -25.5q0 -10 -9.5 -15.5t-27.5 -5.5q-14 0 -37 5q-73 15 -134 51t-91 92q-54 9 -119 9q-80 0 -166 -12.5t-156 -34.5l-3 -1l2 1q77 25 170 39.5t175 14.5q53 0 93 -6q-14 37 -14 66q0 99 116 159.5t265.5 84.5t245.5 21
q35 -2 53.5 -7zM33 -121q21 -43 65 -75t94 -43q25 -5 37 -5q31 0 31 16q0 11 -15 25t-42 27q-66 32 -170 55z" />
    <glyph glyph-name="uni10DB" unicode="&#x10db;" horiz-adv-x="238" 
d="M223 13q15 23 15 49q0 27 -15 46t-43 23q169 323 177 394q3 24 -7 38t-28 14q-14 0 -31 -9q-23 -13 -43 -36t-33 -50q-17 35 -58 49h-0.5h-0.5q41 -16 58 -52q-10 -22 -15.5 -48t-5.5 -49q0 -12 5 -19t12 -7q16 0 23 26q4 15 4 35q0 28 -7 45q8 27 25 55t36 41q11 8 20 8
q18 0 18 -25q0 -9 -1 -14q-9 -43 -45 -121t-95 -196l-39 -78l-15 -3q17 29 17 59q0 17 -8.5 26t-21.5 9q-18 0 -38 -14q-31 -22 -51 -54.5t-25 -63.5q-2 -10 -2 -29q0 -29 10.5 -45.5t28.5 -16.5q37 0 68 31q34 34 67 97q26 -2 41.5 -21t15.5 -45t-14 -48q-1 -1 1 -1z
M232 423q0 -16 -3 -30q-3 -10 -6 -10t-3 8q0 31 9 64q3 -13 3 -32zM132 209q12 0 12 -15q0 -3 -2 -13q-2 -12 -10 -29t-17 -29q-17 -5 -34.5 -15.5t-27.5 -22.5q-8 -9 -8 -19q0 -9 9 -9q8 0 24 10q31 21 54 58l15 3q-8 -18 -20.5 -42t-21.5 -37q-29 -38 -50 -38
q-23 0 -20 44q2 30 22 73.5t50 69.5q14 11 25 11zM73 84q-5 -4 -9 -4q-2 0 -2 2t4 6q15 16 44 30q-14 -17 -37 -34z" />
    <glyph glyph-name="uni10DC" unicode="&#x10dc;" horiz-adv-x="171" 
d="M491 535q0 -4 -6 -7t-14 -3q-16 0 -24 9q-35 37 -72 37q-55 0 -122.5 -83t-154.5 -262q30 -2 45.5 -20t15.5 -45q0 -23 -11 -48q-15 -34 -48.5 -67t-64.5 -43q-7 -3 -15 -3q-25 0 -25 37q0 26 13 66q-12 18 -12 38q0 27 18.5 49.5t45.5 31.5q60 128 111 205.5t100 113.5
t102 36q43 0 95 -23q23 -9 23 -19zM104.5 97.5q18.5 35.5 18.5 64.5q0 38 -36 49q-42 -64 -65 -119q13 -13 36 -18q-19 3 -37 16q-16 -41 -16 -60q0 -20 13 -20q10 0 23.5 9.5t22.5 19.5q22 23 40.5 58.5zM16 182.5q-14 -20.5 -14 -43.5q0 -17 8 -31q15 48 43 102
q-23 -7 -37 -27.5z" />
    <glyph glyph-name="uni10DD" unicode="&#x10dd;" horiz-adv-x="323" 
d="M128 131q-37 -66 -37 -98q0 -11 4.5 -17t11.5 -6q14 0 27 19q17 22 33.5 62.5t19.5 76.5q36 49 62 49q11 0 18 -8t7 -22q0 -37 -39 -98.5t-90 -106.5q66 14 108 20h-34q30 37 54.5 85t24.5 83q0 25 -12 40t-34 15q-34 0 -69 -28q-5 13 -16 20.5t-26 7.5q-35 0 -67.5 -27
t-56.5 -68q-13 11 -35.5 17.5t-48.5 6.5q-48 0 -82 -24q-1 -1 -0.5 -1.5t1.5 0.5q32 23 79 23q26 0 49 -7t35 -18q-28 -50 -28 -92q0 -14 6 -24t15 -10q13 0 23 23q12 26 12 55q0 13 -3 25q13 34 43 73.5t55 39.5q13 0 20 -10.5t4 -29.5q-17 -17 -34 -46zM133 45
q-7 -14 -11 -14q-1 0 -1 3q0 5 5 18q12 32 35 70q-8 -40 -28 -77zM38 83q0 -24 -7 -42q-3 -10 -7 -10q-1 0 -2 2.5t-1 5.5q0 13 3.5 25.5t12.5 33.5q1 -5 1 -15z" />
    <glyph glyph-name="uni10DE" unicode="&#x10de;" horiz-adv-x="211" 
d="M240 284.5q36 46.5 47 107.5q24 -22 55.5 -34.5t63.5 -12.5q48 0 85 30.5t50 94.5q-15 -62 -50.5 -92t-81.5 -30q-32 0 -64 14t-57 38q3 27 3 53q0 86 -31 171q-12 31 -34 58.5t-36 27.5q-17 0 -17 -40q0 -63 28.5 -132t59.5 -115q-4 -57 -34.5 -116t-88.5 -89
q-12 6 -27 6t-32 -7q-13 -6 -13 -13q0 -4 4.5 -6.5t12.5 -2.5q23 0 49 12q10 -10 10 -31q0 -33 -20 -79t-40 -66q-12 -11 -21 -17t-19 -6q-11 0 -16.5 5.5t-5.5 13.5t6 20q20 11 31.5 19.5t14.5 22.5q1 8 -2.5 12.5t-10.5 4.5q-9 0 -19 -7q-29 -23 -31 -56q-30 -14 -55 -14
q-24 0 -38.5 12t-14.5 35q0 18 10 41q-11 -22 -11 -43q0 -22 15 -35t40 -13q24 0 54 12q1 -19 12 -28.5t28 -9.5q31 0 58 27q29 27 47 63.5t18 68.5q0 17 -6.5 31.5t-18.5 22.5q57 25 93 71.5zM204.5 545.5q-24.5 62.5 -24.5 125.5q0 29 12 29q8 0 18 -11.5t19 -28.5
q18 -34 27 -81t9 -99q0 -17 -2 -49q-34 52 -58.5 114.5zM111.5 205.5q-10.5 -3.5 -16.5 -3.5q-7 0 -7 4t8 7q8 4 17 4q10 0 15 -4q-6 -4 -16.5 -7.5zM50 78q4 4 6.5 4t2.5 -2q0 -10 -28 -25q5 9 19 23z" />
    <glyph glyph-name="uni10DF" unicode="&#x10df;" horiz-adv-x="274" 
d="M-26 -326q82 55 129 150q33 68 60 146.5t42 138.5l27 103q14 8 23 15q14 12 14 24q0 9 -11 9q-19 0 -35.5 -13t-23.5 -35q-77 -11 -89 -78q-9 -48 -18 -75t-32 -43q-10 -7 -22 -7q-23 0 -23 19q0 9 5 19q3 2 15.5 8.5t21 15.5t10.5 19q1 8 -2.5 12t-10.5 4q-11 0 -19 -7
q-15 -11 -23 -25.5t-8 -29.5q-30 -14 -52 -14q-18 0 -28.5 10t-10.5 29q0 21 13 51q-15 -32 -15 -53q0 -19 11 -29.5t31 -10.5q21 0 51 12q1 -19 12 -29t28 -10q7 0 21 4q41 14 57 49.5t24 81.5q4 27 15.5 42.5t35.5 25.5l-24 -89q-17 -64 -44.5 -140t-59.5 -141
q-46 -92 -119.5 -144.5t-173.5 -52.5q-81 0 -135 40t-54 111q0 40 15.5 80t41.5 68q1 1 0.5 1.5t-1.5 -0.5q-29 -29 -46 -72t-17 -85q1 -74 58.5 -117t146.5 -43q107 0 189 55zM249 243q7 4 9 2.5t-2 -7.5q-8 -10 -23 -17q3 13 16 22zM45 80q5 4 7.5 3t-1.5 -6
q-5 -9 -26 -20q8 11 20 23z" />
    <glyph glyph-name="uni10E0" unicode="&#x10e0;" horiz-adv-x="326" 
d="M152 130q-38 -65 -38 -98q0 -11 4.5 -17t12.5 -6q14 0 27 19q17 22 33.5 62.5t19.5 76.5q36 49 62 49q11 0 18 -8t7 -23q0 -37 -39 -98t-90 -106q59 13 107 20h-33q30 37 54.5 85t24.5 83q0 25 -12.5 40t-34.5 15q-34 0 -69 -28q-12 28 -42 28q-28 0 -55 -17.5t-49 -47.5
q13 56 54.5 117.5t87.5 110.5q74 11 145.5 44t115.5 83q22 25 22 42q0 21 -34 21q-63 0 -141 -56.5t-136 -121.5q-41 9 -68.5 47t-27.5 94q0 91 74 192q-78 -100 -78 -194q0 -55 26.5 -93.5t68.5 -51.5q-45 -57 -78.5 -123t-37.5 -121q-18 -26 -30.5 -58t-12.5 -58
q0 -13 6.5 -23t14.5 -10q14 0 24 23q11 23 11 52q0 16 -3 28q15 36 44 74.5t55 38.5q13 0 19.5 -10.5t4.5 -29.5q-19 -20 -34 -46zM325.5 503.5q59.5 45.5 104.5 58.5q13 4 25 4q20 0 20 -15q0 -14 -17 -34q-39 -48 -110 -80.5t-140 -41.5q58 63 117.5 108.5zM156 44
q-7 -14 -11 -14q-1 0 -1 3q0 5 5 18q17 41 36 70q-9 -41 -29 -77zM62 82q0 -24 -7 -42q-3 -10 -7 -10q-5 0 -3 16q6 28 16 51q1 -5 1 -15z" />
    <glyph glyph-name="uni10E1" unicode="&#x10e1;" horiz-adv-x="189" 
d="M32.5 60.5q6.5 16.5 18.5 42.5l188 391q9 20 9 35q0 20 -14 33t-35 15q21 -9 21 -29q0 -14 -14 -44l-175 -375q-14 -31 -20 -48t-6 -31q0 -24 13.5 -37t34.5 -13q8 0 22 4q41 14 58 49.5t24 80.5q10 79 62 97q-45 -8 -69.5 -33t-29.5 -67q-5 -40 -15 -69t-35 -46
q-11 -8 -23 -8q-9 0 -15 6t-6 17q0 13 6.5 29.5z" />
    <glyph glyph-name="uni10E2" unicode="&#x10e2;" horiz-adv-x="221" 
d="M181.5 42.5q14.5 -20.5 14.5 -51.5q0 -40 -23.5 -87.5t-66.5 -90.5q-23 -22 -53 -36.5t-57 -14.5q-35 0 -55.5 25t-20.5 80q0 77 38 160.5t96 176.5q-13 -3 -25 -3q20 5 38 12.5t37 16.5q1 0 1 -0.5t-1 -0.5q-65 -93 -116.5 -197t-51.5 -186q0 -40 15 -58.5t40 -18.5
q23 0 50 15t48 38q36 41 56.5 90t20.5 88q0 25 -9 41.5t-26 20.5q-30 -28 -52 -41q-6 -60 -27.5 -98t-67.5 -59q28 19 41.5 56.5t20.5 86.5q-10 -2 -13 -2q-15 0 -15 12q0 10 9.5 21t24.5 17q20 115 77 160q18 14 37 14q29 0 29 -39q0 -29 -17.5 -63.5t-39.5 -56.5
q29 -7 43.5 -27.5zM155 137.5q22 38.5 22 65.5q0 19 -14 19q-30 0 -51 -54.5t-28 -100.5q18 4 26 5q23 27 45 65.5zM101 65q-3 -1 -7.5 -2t-10.5 -2l-1 -13q15 13 19 17zM51 48q-12 -6 -12 -12q0 -7 10 -5q0 7 2 17z" />
    <glyph glyph-name="uni10E3" unicode="&#x10e3;" horiz-adv-x="414" 
d="M98 131q-7 0 -11.5 6t-4.5 15q0 8 5 18q20 11 31.5 19.5t14.5 23.5q1 8 -3 12t-11 4q-10 0 -18 -7q-22 -18 -29 -51q-12 -3 -24 -3q-27 0 -44 15t-17 38q0 30 32 56q-17 -12 -26 -27t-9 -31q0 -23 17.5 -39.5t46.5 -16.5q11 0 23 3q-2 -43 33 -43q23 0 38.5 10.5
t27.5 31.5q33 56 60 56q14 0 20.5 -10.5t3.5 -29.5q-19 -23 -34 -46q-37 -66 -37 -98q0 -11 4.5 -17t11.5 -6q15 0 27 19q17 22 33.5 62.5t19.5 76.5q37 49 61 49q9 0 14.5 -7t5.5 -20q0 -9 -3 -21q-14 -62 -46 -158.5t-72 -176.5q-46 -92 -119.5 -144.5t-173.5 -52.5
q-81 0 -135 40t-54 111q0 40 15.5 80t41.5 68q1 1 0.5 1.5t-1.5 -0.5q-29 -29 -46 -72t-17 -85q0 -74 58 -117t147 -43q106 0 188.5 55t129.5 150q60 119 112 324q4 18 4 26q0 22 -12 36t-33 14q-34 0 -69 -28q-12 28 -42 28q-52 0 -99 -72q-16 -26 -36 -26zM111 202
q4 3 6.5 3t2.5 -2q0 -5 -7.5 -11t-13 -9.5t-7.5 -4.5q4 7 19 24zM225 49q-7 -14 -11 -14q-1 0 -1 3q0 5 5 18q12 32 35 70q-8 -40 -28 -77z" />
    <glyph glyph-name="uni10E4" unicode="&#x10e4;" horiz-adv-x="329" 
d="M224 71.5q30 40.5 44 76.5q-27 7 -48 7q-6 -7 -23 -30t-44 -50q-35 -37 -64 -55.5t-48 -18.5q-13 0 -20.5 9.5t-7.5 26.5q0 20 9 48q18 55 60 107.5t93 83.5q26 15 47 15q15 0 23.5 -8t8.5 -24q0 -39 -55 -102q4 1 13 1q23 36 41 51.5t35 15.5q22 0 22 -30q0 -22 -11 -54
q61 -28 100 -77q0 -1 -1 -1q-40 48 -100 75q-14 -35 -39 -73t-52 -65q29 -6 54.5 -34.5t25.5 -71.5q0 -16 -2 -24q-10 -55 -52.5 -100t-104.5 -70.5t-128 -25.5q-50 0 -91 14q-52 17 -80.5 53.5t-28.5 75.5q0 45 35 68q24 15 49 15q28 0 48 -16.5t20 -42.5q0 -22 -16 -45v1
q14 21 14 43q0 25 -19 40.5t-46 15.5q-23 0 -45 -13q-18 -11 -27 -28t-9 -37q0 -37 28.5 -71t81.5 -50q39 -12 79 -12q60 0 116 24.5t94.5 67t48.5 93.5q3 15 3 28q0 38 -19 61.5t-44 27.5q-38 -29 -86 -46q-23 -9 -44 -9q-11 0 -17.5 3.5t-6.5 9.5q0 12 22 25
q19 12 47.5 21t53.5 11q33 29 63 69.5zM111.5 180q-37.5 -53 -50.5 -94q-6 -19 -6 -30q0 -18 14 -18q13 0 35.5 15t46.5 37q30 29 59 65q-6 0 -14 -2q-42 -46 -88 -66q-9 -4 -17 -4q-11 0 -11 10q0 13 17 27q31 23 77 33q25 20 45.5 45.5t26.5 47.5q1 3 1 9q0 8 -5 13t-14 5
q-13 0 -34 -12q-45 -28 -82.5 -81zM281 195q0 13 -9 13q-16 0 -50 -50q22 -1 47 -8q12 29 12 45zM110 123q-7 -6 -7 -9q0 -1 2 -1q4 0 12 4q35 18 52 32q-40 -11 -59 -26zM69 -34q-11 -6 -11 -12t9 -6q6 0 13 3q42 15 68 37q-43 -1 -79 -22z" />
    <glyph glyph-name="uni10E5" unicode="&#x10e5;" horiz-adv-x="263" 
d="M349 575q14 0 14 -11q0 -9 -10.5 -20.5t-31.5 -22.5q-34 -99 -59 -178q-73 -224 -131 -384q-29 -79 -58 -137q-47 -95 -129 -150t-189 -55q-89 0 -147 43t-58 117q0 42 17 85t46 72h1q-26 -29 -41.5 -69t-15.5 -80q0 -71 54.5 -111t134.5 -40q100 0 173.5 52.5
t119.5 144.5q64 128 124 335q2 6 2 17q0 16 -7.5 24t-18.5 8q-27 0 -50 -33.5t-32 -66.5q9 -27 9 -53q0 -37 -21 -57q-6 -5 -12 -5t-10.5 6t-6.5 15q-1 6 -1 18q0 44 29 98q-25 46 -77 73q-1 1 -0.5 1.5t0.5 -0.5q53 -26 79 -71q20 35 43.5 58.5t54.5 23.5q8 0 18.5 -5.5
t16.5 -13.5q39 118 38 117q36 116 62 189q-24 -6 -44 -6q-43 0 -64.5 25.5t-21.5 65.5q0 28 10 58t29 56q-33 -52 -33 -101q0 -41 22.5 -66.5t63.5 -25.5q21 0 43 7q4 18 22 33.5t34 18.5q3 1 9 1zM354 559q0 2 -2 2q-4 0 -9 -4q-13 -9 -16 -22q17 9 25 19q2 4 2 5zM61 68
q0 17 -6 41q-9 -33 -9 -65v-2q0 -11 5 -11q3 0 6 9q4 11 4 28z" />
    <glyph glyph-name="uni10E6" unicode="&#x10e6;" horiz-adv-x="356" 
d="M193 219q12 0 18 -9.5t4 -28.5q-17 -19 -34 -47q-18 -33 -28 -57t-10 -43q0 -10 4.5 -15.5t11.5 -5.5q15 0 28 19q17 22 33.5 62.5t19.5 76.5q36 49 62 49q11 0 18 -8t7 -22q0 -37 -39 -98.5t-90 -106.5q67 14 107 20h-33q30 37 54.5 85t24.5 83q0 25 -12 40t-34 15
q-34 0 -69 -28q-11 28 -42 28q-24 0 -47 -15q-36 -24 -69 -66t-53 -92t-20 -98q0 -72 40.5 -124t109.5 -77q6 -2 8.5 -1t-5.5 4q-58 22 -88.5 69t-30.5 112q0 47 17 100.5t45 98t60 67.5q18 13 32 13zM186 48q-7 -14 -11 -14q-1 0 -1 3q0 4 5 19q12 31 35 70q-8 -40 -28 -78
z" />
    <glyph glyph-name="uni10E7" unicode="&#x10e7;" horiz-adv-x="232" 
d="M37 16q-7 8 -7 23q0 37 39 98t90 105l-29 -6q-9 -2 -32 -6t-46 -7h34q-26 -32 -48.5 -73t-29.5 -76q-2 -14 -2 -19q0 -25 12.5 -40t34.5 -15q28 0 53.5 16.5t46.5 44.5q-11 -52 -49 -109t-81 -102q-72 -8 -137.5 -40t-109.5 -81q-21 -24 -21 -39q0 -20 33 -20
q59 0 138 56.5t134 117.5q46 -1 83.5 -28.5t37.5 -72.5q0 -61 -69 -131q73 72 73 132q0 45 -36 73.5t-84 32.5q40 49 67.5 109.5t31.5 114.5q18 28 30.5 59t12.5 58q0 13 -6.5 22.5t-14.5 9.5q-14 0 -24 -23q-11 -23 -11 -52q0 -14 3 -28q-15 -35 -44 -73.5t-55 -38.5
q-11 0 -18 8zM162 184q3 10 7 10q5 0 3 -16q-6 -28 -16 -52q-3 28 6 58zM-110.5 -273.5q-63.5 -45.5 -106.5 -45.5q-18 0 -18 13q0 12 16 33q38 46 104.5 78t131.5 37q-64 -70 -127.5 -115.5z" />
    <glyph glyph-name="uni10E8" unicode="&#x10e8;" horiz-adv-x="238" 
d="M286.5 409.5q-34.5 -74.5 -94.5 -194.5q-8 -15 -42 -83l-15 -3q17 29 17 59q0 17 -8.5 26t-21.5 9q-18 0 -38 -14q-30 -22 -50 -54t-26 -64q-2 -10 -2 -29q0 -29 10.5 -45.5t28.5 -16.5q37 0 68 31q32 31 67 97q26 -2 41.5 -21t15.5 -45t-14 -48l0.5 -0.5l0.5 -0.5
q15 23 15 50q0 26 -15 45t-42 23q2 4 16 30q66 128 111.5 225t48.5 139q2 26 -10 39t-36 13q-35 0 -69 -29q-11 29 -42 29q-35 0 -67.5 -27.5t-56.5 -68.5q-12 11 -35 18t-48 7q-49 0 -82 -25q-1 -1 -1 -1.5t1 0.5q34 24 80 24q26 0 48.5 -7t34.5 -19q-13 -23 -20.5 -47
t-7.5 -44q0 -14 6 -24t15 -10q13 0 24 23q11 27 11 54q0 14 -3 26q13 34 43 73t56 39q13 0 19.5 -10t4.5 -29q-21 -23 -34 -47q-38 -63 -38 -97q0 -11 4.5 -17t11.5 -6q15 0 27 18q17 21 33.5 62t20.5 78q35 48 62 48q10 0 15.5 -7.5t5.5 -20.5q0 -8 -1 -13
q-9 -43 -43.5 -117.5zM193 396q-7 -14 -11 -14q-1 0 -1 3q0 4 5 19q12 32 35 70q-8 -40 -28 -78zM98 433q0 -22 -6 -40q-3 -11 -7 -11q-2 0 -3 5t0 11q6 30 15 52q1 -6 1 -17zM133 209q12 0 12 -16q0 -8 -1 -12q-3 -13 -11 -29.5t-17 -28.5q-16 -5 -34 -15.5t-27 -22.5
t-9 -19q0 -9 9 -9q10 0 24 10q31 21 54 58l15 3q-8 -18 -20.5 -42t-21.5 -37q-29 -38 -50 -38q-10 0 -15.5 11t-4.5 33q2 30 22 73.5t50 69.5q14 11 25 11zM74 84q-5 -4 -9 -4q-2 0 -2 2t4 6q16 17 45 30q-16 -18 -38 -34z" />
    <glyph glyph-name="uni10E9" unicode="&#x10e9;" horiz-adv-x="223" 
d="M48 148q-18 -26 -30.5 -58t-12.5 -58q0 -13 6.5 -23t14.5 -10q14 0 24 23q11 23 11 52q0 16 -3 28q15 35 44.5 74t54.5 39q11 0 18 -8t7 -22q0 -37 -39 -98.5t-90 -106.5q65 13 107 19h-33q30 38 54.5 86t24.5 83q0 24 -12.5 39.5t-34.5 15.5q-27 0 -53 -17t-47 -44
q11 50 53 113q103 23 195 81t138 134q18 29 18 52q0 17 -11.5 26t-30.5 9q-17 0 -41 -8q-88 -30 -163.5 -110t-128.5 -180q-20 -2 -29 -2q-93 0 -93 85q0 72 69 210q-75 -140 -75 -214q0 -95 124 -86q-32 -69 -36 -124zM252 454.5q71 70.5 138 101.5q27 12 42 12q12 0 18 -6
t6 -16q0 -19 -18 -45q-53 -75 -142 -135.5t-179 -82.5q64 101 135 171.5zM57 81q0 -24 -7 -42q-3 -10 -7 -10q-2 0 -2.5 4.5t0.5 11.5q3 25 15 51q1 -5 1 -15z" />
    <glyph glyph-name="uni10EA" unicode="&#x10ea;" horiz-adv-x="260" 
d="M70 197q8 1 13 2q-58 -94 -95.5 -177t-37.5 -160q0 -54 21 -79t55 -25q27 0 57 14.5t53 36.5q43 42 67 90t24 88q0 30 -15 50.5t-44 27.5q38 40 62.5 101t24.5 119q0 21 -3 39q-4 26 -18 26q-11 0 -24 -19q-1 -2 -0.5 -2.5t2.5 1.5q8 6 11 6q6 0 12 -13q4 -20 4 -31
q0 -51 -29.5 -115t-70.5 -110q-42 -6 -62 -20q-27 -18 -27 -35q0 -12 15 -12q13 0 34 11q31 15 62 46q18 -4 26.5 -20.5t8.5 -42.5q0 -39 -20 -87t-56 -89q-21 -24 -48 -38.5t-51 -14.5t-39.5 18.5t-15.5 57.5q0 81 51 185t117 199q-8 -3 -29.5 -13t-46.5 -16q4 0 12 1z
M85 28l-10 -2q-5 0 -5 3q0 5 10 12q20 14 51 19q-22 -22 -46 -32z" />
    <glyph glyph-name="uni10EB" unicode="&#x10eb;" horiz-adv-x="237" 
d="M324.5 562.5q5.5 -7.5 5.5 -20.5q0 -36 -36 -116t-101 -208q-39 -75 -44 -86l-15 -3q17 29 17 59q0 17 -8.5 26t-21.5 9q-18 0 -38 -14q-31 -22 -51 -54.5t-25 -63.5q-2 -10 -2 -29q0 -29 10.5 -45.5t28.5 -16.5q37 0 68 31q34 34 67 97q26 -2 41.5 -21t15.5 -45t-14 -48
q-1 -1 1 -1q15 23 15 49q0 27 -15 46t-43 23q70 133 121.5 240.5t55.5 153.5q3 40 -27 48q-6 2 -10 2q-8 0 -11 -5q10 0 15.5 -7.5zM132 209q12 0 12 -15q0 -3 -2 -13q-2 -12 -10 -29t-17 -29q-17 -5 -34.5 -15.5t-27.5 -22.5q-8 -9 -8 -19q0 -9 9 -9q8 0 24 10q31 21 54 58
l15 3q-8 -18 -20.5 -42t-21.5 -37q-29 -38 -50 -38q-23 0 -20 44q2 30 22 73.5t50 69.5q14 11 25 11zM73 84q-5 -4 -9 -4q-2 0 -2 2t4 6q15 16 44 30q-14 -17 -37 -34z" />
    <glyph glyph-name="uni10EC" unicode="&#x10ec;" horiz-adv-x="173" 
d="M543 535q0 -4 -6 -7t-14 -3q-16 0 -24 9q-31 33 -63 35q-41 0 -76 -49q-3 -36 -19.5 -77t-33.5 -63q-13 -18 -27 -18q-17 0 -17 22q0 27 22.5 68t49.5 77q2 19 -5 29.5t-19 10.5q-15 0 -30 -15q-25 -25 -59 -90.5t-84 -173.5q-2 -4 -30 -64q30 -2 46 -20t16 -45
q0 -24 -12 -48q-15 -34 -48.5 -67t-63.5 -43q-7 -3 -15 -3q-12 0 -19 9t-7 26q0 27 14 68q-12 20 -12 39q0 26 18 48.5t45 31.5l25 52q69 154 114 223q23 36 47 57.5t56 21.5t43 -28q35 29 77 29q35 0 88 -23q23 -9 23 -19zM337 480q-17 -25 -27 -48t-12 -28q-5 -13 -5 -18
q0 -4 2 -4q4 0 11 14q22 42 31 84zM115.5 97.5q18.5 35.5 18.5 63.5q0 39 -37 50q-40 -60 -64 -119q13 -13 36 -18q-21 3 -37 16q-16 -36 -16 -59q0 -20 13 -20q10 0 23.5 9.5t22.5 18.5q22 23 40.5 58.5zM27 182q-14 -21 -14 -44q0 -17 7 -30q20 57 44 102q-23 -7 -37 -28z
" />
    <glyph glyph-name="uni10ED" unicode="&#x10ed;" horiz-adv-x="227" 
d="M215 203q22 66 22 120q0 21 -2 31q-4 23 -15 23q-12 0 -27 -24q-1 -1 -0.5 -1.5t2.5 0.5q8 6 12 6q10 0 10 -18q0 -81 -74 -229q-4 4 -12 6q6 8 8 12q8 16 12.5 29t4.5 29q0 18 -8.5 27t-22.5 9q-18 0 -38 -14q-30 -22 -50 -54t-26 -64q-2 -10 -2 -29q0 -29 10.5 -45.5
t29.5 -16.5q38 0 67 30q14 14 29 34q9 -31 6 -69q-6 -62 -32.5 -114t-71.5 -83t-102 -31q-39 0 -76.5 16t-61 46t-23.5 70q0 33 22 56t55 23q25 0 43.5 -16t18.5 -41q0 -22 -14 -43h0.5h0.5q15 24 15 45q0 25 -18.5 41.5t-45.5 16.5q-34 0 -57.5 -24t-23.5 -59
q0 -43 23.5 -75.5t61.5 -49t79 -16.5q65 0 118.5 35.5t84.5 95t31 128.5q0 44 -16 73q31 48 53 114zM133 90q-29 -53 -50 -69q-13 -10 -23 -10q-21 0 -21 39q0 28 20.5 74t51.5 74q14 11 25 11q12 0 12 -16q0 -8 -1 -12q-3 -13 -12.5 -32t-18.5 -31q-12 -1 -26 -8t-24 -16
q-17 -15 -17 -29q0 -9 9 -9q10 0 25 11q21 14 37 35q7 -4 13 -12zM78 84q-5 -4 -10 -4q-2 0 -2 2t4 6q18 16 33 17q-16 -14 -25 -21z" />
    <glyph glyph-name="uni10EE" unicode="&#x10ee;" horiz-adv-x="189" 
d="M252 492q7 14 7 27q0 21 -15.5 34t-37.5 24q15 -16 15 -40q0 -17 -8 -33l-134 -285q-29 -10 -48 -33t-19 -50q0 -19 10 -35q-17 -47 -17 -73q0 -14 6.5 -21t17.5 -7q8 0 15 3q32 11 66.5 43t51.5 65q13 25 13 50q0 27 -16 44t-46 19zM76 73.5q0 0.5 -1 0.5q-22 3 -35 16
q24 48 64 118q35 -10 35 -44q0 -28 -20 -64.5t-44 -60.5q-9 -9 -23.5 -18.5t-24.5 -9.5q-12 0 -12 16q0 8 7 24.5t17 36.5q15 -12 36 -15q1 0 1 0.5zM18 132q0 24 15.5 45.5t39.5 29.5q-36 -72 -49 -101q-6 12 -6 26z" />
    <glyph glyph-name="uni10EF" unicode="&#x10ef;" horiz-adv-x="215" 
d="M193 286l-109 -242q13 -55 35 -86q26 1 51 -13q11 -6 17 -13.5t6 -13.5q0 -9 -11 -9q-27 0 -69 38q-21 -4 -32.5 -32.5t-11.5 -64.5q0 -67 33.5 -142t75.5 -111q24 -20 36 -20q7 0 7 8q0 7 -4 15q5 -2 6 -7q2 -5 2 -12q0 -10 -10 -10q-13 0 -35.5 14t-40.5 31
q-42 41 -71 103t-29 121q0 44 17 76t52 40q-20 28 -36 63q-52 -109 -121.5 -182t-158.5 -73q-69 0 -105.5 35t-36.5 83q0 42 27 73t71 31q31 0 55.5 -20t24.5 -49q0 -22 -14 -42q13 19 13 39q0 29 -24 49t-55 20q-42 0 -68 -29.5t-26 -69.5q0 -44 33.5 -76.5t97.5 -32.5
q84 0 148.5 80t116.5 195l6 14q-14 46 -23 120q-4 24 -6.5 30t-9.5 6q10 10 23 10q15 0 18 -18q2 -10 3 -19.5t2 -18.5q3 -38 9 -74l84 187q12 29 39 29q8 0 17 -3q-11 -11 -19 -27zM164 -77q5 0 5 3t-6 9q-6 5 -16.5 9.5t-20.5 4.5q10 -11 19 -18q11 -8 19 -8z" />
    <glyph glyph-name="uni10F0" unicode="&#x10f0;" horiz-adv-x="223" 
d="M365 397q33 -14 67 -14q47 0 85 30t56 92q-16 -64 -55.5 -94.5t-90.5 -30.5q-33 0 -65 12.5t-57 34.5q-15 -61 -82 -85q27 -16 27 -42q0 -24 -23 -49t-59 -38q20 -20 20 -54q-2 -33 -21.5 -69.5t-51.5 -62.5q-31 -27 -62 -27q-18 0 -29 9.5t-11 28.5q-32 -12 -57 -12
q-26 0 -41 12t-15 34q0 20 13 45q-12 -25 -12 -43q0 -22 15 -33.5t39 -11.5q25 0 58 14q3 33 35 56q11 7 20 7q6 0 9.5 -3t3.5 -9q0 -14 -11.5 -24t-23.5 -15.5t-15 -7.5q-6 -9 -6 -20q0 -19 21 -19q18 0 43 23q22 20 45 67.5t23 80.5q0 19 -9 28q-29 -12 -52 -12
q-8 0 -13 2.5t-5 6.5q0 7 14 13q19 7 35 7q15 0 27 -6q25 12 45.5 37.5t20.5 49.5q0 17 -13 30q-32 -12 -52 -12q-8 0 -13 2.5t-5 6.5q0 7 14 13q13 6 32 6q18 0 31 -4q25 11 43 39.5t22 62.5q-27 39 -42.5 64.5t-29 63.5t-13.5 78q0 49 20 49q19 0 45 -36q24 -32 38 -81.5
t14 -99.5q0 -29 -4 -52q25 -24 58 -38zM284 515q0 75 -31 139q-9 16 -19.5 27.5t-18.5 11.5q-14 0 -14 -37q0 -50 16 -87.5t47 -87.5q2 -3 16 -25q4 28 4 59zM185.5 334q10.5 3 17.5 7q-6 3 -18 3q-8 0 -16 -2q-9 -3 -9 -7t8 -4q7 0 17.5 3zM125.5 205.5q10.5 3.5 18.5 7.5
q-5 4 -15 4q-9 0 -19 -4q-9 -3 -9 -7t8 -4q6 0 16.5 3.5zM36 55q21 11 28 20q2 2 2 5q0 2 -2 2t-6 -4q-13 -10 -22 -23z" />
    <glyph glyph-name="uni10F1" unicode="&#x10f1;" horiz-adv-x="309" 
d="M451.5 402.5q33.5 -13.5 66.5 -13.5q48 0 85.5 29.5t55.5 91.5q-16 -64 -55 -94t-90 -30q-33 0 -65.5 12.5t-57.5 33.5q-15 -61 -82 -85q27 -16 27 -42q0 -24 -23 -49t-59 -38q20 -20 20 -50q0 -32 -20 -70.5t-53 -65.5q-38 -32 -76 -32q-39 0 -64 33.5t-25 95.5
q0 60 24.5 130.5t55.5 110.5q-24 -8 -47 -8q-18 0 -43 7q22 -5 39 -5q29 0 53 10q16 22 39 47t40 39q14 11 27 11q14 0 14 -12q0 -8 -9 -22q-11 -16 -31.5 -31.5t-38.5 -24.5q-38 -56 -63 -133t-25 -146q0 -36 16.5 -62t41.5 -26q23 0 46 22q22 20 45 67.5t23 80.5
q0 19 -9 28q-34 -12 -52 -12q-8 0 -13 2.5t-5 6.5q0 7 14 13q15 7 35 7q14 0 27 -5q25 11 45.5 37t20.5 50q0 17 -13 30q-30 -13 -52 -13q-8 0 -13 2.5t-5 6.5q0 8 15 14t31 6q14 0 31 -5q25 11 43 39.5t22 62.5q-27 39 -42.5 64.5t-29 63.5t-13.5 78q0 49 21 49
q9 0 21.5 -10t23.5 -26q24 -33 37.5 -81.5t13.5 -98.5q0 -30 -4 -53q25 -24 58.5 -37.5zM371 518q0 77 -32 141q-9 17 -19.5 28.5t-19.5 11.5q-13 0 -13 -38q0 -51 17.5 -90.5t49.5 -87.5l13 -21q4 40 4 56zM163 387q14 8 29 20t24 24q4 5 4 9q0 2 -2 2q-4 0 -11 -7
q-24 -22 -44 -48z" />
    <glyph glyph-name="uni10F2" unicode="&#x10f2;" horiz-adv-x="208" 
d="M53 -41q15 -17 39 -31q15 -9 32 -9q30 0 43 31v16q-5 -15 -27 -15q-11 0 -21 5q-30 17 -44 40q106 57 126 159q2 14 2 20q0 25 -12.5 40t-34.5 15q-37 0 -69.5 -25t-52 -64.5t-19.5 -81.5q0 -34 13 -63q-37 -20 -58 -27q-27 8 -41 8t-21 -6q-8 -7 -8 -13t8 -10t22 -4
q4 0 18 2q14 3 42 11q25 -10 39 -24t14 -28q0 -16 -14.5 -30t-42.5 -24q30 10 45.5 24t15.5 30q0 15 -13 29t-38 26q18 6 42 18q5 -9 15 -19zM55 68q0 37 15 72.5t38 58.5t45 23q12 0 19 -8t7 -23q0 -8 -3 -19q-23 -92 -112 -155q-9 24 -9 51zM-69 -36q-7 0 -8 2.5t6 3.5
l6 1q6 0 26 -5q-16 -2 -30 -2z" />
    <glyph glyph-name="uni10F3" unicode="&#x10f3;" horiz-adv-x="251" 
d="M218 -154q60 0 101.5 -31t41.5 -88q0 -39 -23 -88q21 49 21 87q0 56 -39 85.5t-98 29.5q-32 0 -63 -9q-66 -113 -181 -203q-26 -20 -59 -35.5t-52 -15.5q-17 0 -17 13q0 9 10 25q40 63 115.5 118.5t138.5 85.5q19 29 37 76t18 83q0 41 -28 54q-38 -29 -86 -46
q-23 -9 -44 -9q-23 0 -23 13q0 11 21 25q19 12 48 21t54 11q42 30 68 87q-23 31 -48 52q-34 -12 -61 -12q-7 0 -23 2q-14 2 -23 10t-9 17q0 7 5 12q8 8 26 8q15 0 33.5 -5.5t33.5 -14.5q34 6 70 21q16 7 27 7q19 0 19 -28q0 -50 -28 -100q20 -36 31 -72t11 -66q-1 30 -12 66
t-31 70q-21 -34 -44 -55q24 -9 36 -30.5t12 -49.5q0 -29 -11 -62.5t-30 -65.5q32 7 55 7zM180 137q16 36 21 67v4q0 7 -4.5 10.5t-11.5 -0.5l-23 -13q-16 -11 -28 -16q26 -23 46 -52zM97 34q-21 -1 -42.5 -7t-35.5 -15q-11 -5 -11 -12q0 -6 9 -6q6 0 13 3q40 15 67 37z
M22 -307q49 55 88 119q-167 -88 -239 -192q-11 -17 -11 -24q0 -8 11 -8q20 0 55 21q47 29 96 84z" />
    <glyph glyph-name="uni10F4" unicode="&#x10f4;" horiz-adv-x="273" 
d="M166 263q24 0 48 9l4 1q10 0 10 -16q0 -37 -37.5 -97t-88.5 -100q-24 -2 -52.5 -10.5t-48.5 -20.5q-22 -13 -22 -26q0 -6 6 -9.5t17 -3.5q19 0 45 10q46 17 86 46q25 -5 44 -28.5t19 -60.5q0 -13 -3 -28q-10 -51 -48.5 -93.5t-94.5 -67t-116 -24.5q-41 0 -80 12
q-52 16 -80.5 50t-28.5 71q0 20 9 37t27 28q22 13 45 13q27 0 46 -16t19 -41q0 -21 -14 -43q16 23 16 45q0 26 -19.5 42t-47.5 16q-26 0 -50 -15q-18 -11 -27 -28.5t-9 -38.5q0 -39 29 -75.5t81 -53.5q42 -14 92 -14q65 0 127 25t104.5 70t52.5 101q2 8 2 24q0 43 -26 71.5
t-55 34.5q38 35 69.5 94.5t31.5 99.5q0 30 -17 30q-6 0 -16 -5q-14 -7 -30 -7q-30 0 -53 25.5t-27 57.5q39 66 62 118t23 109q0 44 -17 44q-18 0 -49 -47q-24 -38 -38 -90t-14 -102q0 -26 5 -53q-28 -27 -68 -43.5t-81 -16.5q-49 0 -87 25.5t-54 78.5q15 -55 53 -81.5
t89 -26.5q40 0 80 15.5t69 41.5q27 -63 88 -63zM99 418q0 77 32 147q10 21 21 35.5t19 14.5q11 0 11 -35q0 -52 -17.5 -96t-50.5 -103l-11 -20q-4 40 -4 57zM21 10q-7 -3 -14 -3q-8 0 -8 5q0 6 11 13q14 9 35.5 15t42.5 7q-24 -21 -67 -37z" />
    <glyph glyph-name="uni10F5" unicode="&#x10f5;" horiz-adv-x="235" 
d="M285.5 286.5q18.5 22.5 18.5 48.5q0 21 -12 39q13 42 13 66q0 18 -8.5 27.5t-22.5 9.5q-8 0 -13 -2q-30 -11 -61.5 -44t-46.5 -66q-12 -25 -12 -49q0 -27 16 -45t48 -20l-60 -119l-15 -3q17 29 17 59q0 17 -8.5 26t-21.5 9q-17 0 -39 -14q-30 -22 -50 -54.5t-25 -63.5
q-2 -10 -2 -29q0 -29 10.5 -45.5t28.5 -16.5q37 0 68 31q34 34 67 97q26 -2 41.5 -21t15.5 -45t-14 -48q-1 -1 1 -1q15 23 15 49q0 27 -15 46t-43 23q32 60 64 125q27 8 45.5 30.5zM237 403.5q0 -0.5 1 -0.5q21 -3 36 -18q-35 -72 -60 -118q-38 11 -38 51q0 28 17.5 62.5
t38.5 57.5q8 9 22.5 18.5t24.5 9.5q14 0 14 -20q0 -17 -18 -59q-13 12 -37 17q-1 0 -1 -0.5zM298 339q0 -24 -14 -44.5t-37 -27.5q27 53 43 103q8 -13 8 -31zM127 209q13 0 13 -15q0 -3 -2 -13q-2 -12 -10 -29t-17 -29q-17 -5 -35 -15.5t-27 -22.5q-9 -10 -9 -19t9 -9t25 10
q31 21 54 58l15 3q-8 -19 -21 -43t-22 -36q-13 -18 -26 -28t-23 -10q-23 0 -20 44q2 30 22 73.5t50 69.5q14 11 24 11zM69 84q-5 -4 -9 -4q-2 0 -2 2t4 6q15 16 44 30q-14 -17 -37 -34z" />
    <glyph glyph-name="uni10F6" unicode="&#x10f6;" horiz-adv-x="338" 
d="M258 256l-36 -4q-34 -68 -66 -136l-14 -2q8 17 15.5 41t7.5 37q0 16 -8.5 24t-21.5 8q-19 0 -39 -14q-31 -22 -51 -54.5t-25 -63.5q-2 -10 -2 -29q0 -29 10.5 -45.5t28.5 -16.5q25 0 46 13l-32 -61q-18 -32 -39.5 -90t-21.5 -87q0 -13 7 -20t18 -7q9 0 23 7q4 2 5 5
t-6 -1q-14 -6 -19 -6q-6 0 -9.5 5t-3.5 14q0 21 18.5 60.5t51.5 102.5l18 33l72 146l13 1q-7 -13 -16.5 -38t-10.5 -37q-3 -21 5.5 -32t23.5 -11q19 0 39 14q30 21 50 53t26 64q2 10 2 29q0 29 -10.5 45.5t-28.5 16.5q-22 0 -46 -15q15 31 26 51zM144 210q12 0 12 -17
q0 -7 -1 -11q-2 -12 -11 -33t-20 -38q-16 -8 -31.5 -21.5t-22.5 -26.5q-6 -10 -6 -18q0 -10 8 -10q11 0 25 14q27 24 43 60q3 0 13 2q-13 -32 -35 -61q-29 -38 -50 -38q-23 0 -20 44q2 30 22 73.5t50 69.5q16 11 24 11zM190 11q-13 0 -13 16q0 3 2 13q6 16 17 42t19 38
q15 6 30 18t24 25q7 10 7 19t-9 9t-24 -12q-26 -21 -43 -58q-3 0 -13 -2q2 4 9.5 19.5t20.5 32.5q29 38 50 38q23 0 20 -44q-2 -30 -22 -73.5t-50 -68.5q-15 -12 -25 -12zM249 162q7 5 9 5q5 0 -1 -8q-19 -23 -38 -33q22 29 30 36zM90 66q-6 -6 -9 -6q-4 0 1 8q11 18 39 36
q-13 -20 -31 -38z" />
    <glyph glyph-name="uni10F7" unicode="&#x10f7;" horiz-adv-x="198" 
d="M47.5 -350.5q16.5 -21.5 43.5 -21.5q25 0 57.5 20.5t69.5 60.5q-74 -78 -125 -78q-27 0 -43 22t-18 63q50 61 80 134t30 143q0 15 -4.5 24t-12.5 9q-19 0 -42 -42q-25 -48 -39.5 -109.5t-16.5 -117.5q-22 -33 -47 -59q-44 -44 -72 -44q-27 0 -27 28q0 54 92 196
q16 26 41 58.5t50 63.5q36 44 58.5 73.5t38.5 58.5q14 26 14 52q0 41 -41 41q-20 -1 -41.5 -18t-39.5 -47q-11 -20 -11 -35t12 -15q10 0 17.5 13t9.5 27q4 31 17.5 48t27.5 17q9 0 14.5 -7t5.5 -19q0 -22 -13 -45q-15 -28 -35 -55t-57 -72q-64 -78 -90 -120
q-28 -44 -56.5 -103.5t-28.5 -101.5q0 -48 49 -48q24 0 53.5 16.5t59.5 49.5q3 -39 19.5 -60.5zM103.5 3q7.5 9 13.5 9q7 0 7 -17q0 -39 -27 -110t-64 -119q9 112 56 212q7 16 14.5 25z" />
    <glyph glyph-name="uni10F8" unicode="&#x10f8;" horiz-adv-x="248" 
d="M63.5 -7.5q9.5 -4.5 20.5 -4.5q38 0 73.5 32.5t58 78t22.5 80.5q0 13 -6.5 22.5t-14.5 9.5q-14 0 -24 -23q-10 -20 -10 -51q0 -10 2 -28q-13 -34 -43.5 -73.5t-55.5 -39.5q-11 0 -18 8t-7 23q0 37 39 98t90 105l-33 -6q-33 -8 -74 -13h33q-41 -52 -78 -133.5t-38 -136.5
q0 -71 41 -123t110 -77q6 -2 8 -1.5t-5 3.5q-59 23 -89 70t-30 112q0 29 14 79q5 -7 14.5 -11.5zM186 130q0 19 7 42q3 10 7 10q5 0 3 -16q-6 -28 -16 -52z" />
    <glyph glyph-name="uni10F9" unicode="&#x10f9;" horiz-adv-x="367" 
d="M313.5 196.5q33.5 -30.5 33.5 -76.5q0 -45 -28 -86t-75 -65t-102 -22q-30 -32 -49.5 -78.5t-15.5 -85.5q1 -11 7 -17t14 -6q14 0 26 17t13 48q1 15 7 28t16 13q14 0 14 -19q0 -15 -7 -31q-15 -30 -35.5 -47.5t-39.5 -17.5q-22 0 -34 14t-12 39q0 37 21 76.5t53 69.5
q-41 9 -68 41.5t-27 69.5q0 20 11 39q16 62 67.5 95t111.5 33q65 -1 98.5 -31.5zM308 123q0 43 -22.5 70.5t-70.5 27.5q-38 0 -73 -21t-55 -59q30 15 67 15q22 0 46 -6h-1q-24 4 -35 4q-47 0 -80 -20q-17 -34 -17 -67q0 -41 22 -70t50 -29q45 33 80 44q11 3 18 3q9 0 9 -6
q0 -9 -22 -24q-34 -22 -70 -24l-8 -8q44 -1 80 21.5t57 58.5t24 74zM133 -38q-25 1 -48 17t-37 41.5t-14 55.5q0 10 1 15q-6 -13 -6 -29q0 -35 27 -68t69 -39zM212 -12q16 11 16 17q0 3 -4 3q-3 0 -11 -3q-17 -6 -54 -37q23 1 53 20z" />
    <glyph glyph-name="uni10FA" unicode="&#x10fa;" horiz-adv-x="199" 
d="M235 214q24 0 39 -16.5t15 -44.5q0 -13 -5 -35q4 16 4 32q0 30 -14.5 45.5t-37.5 15.5q-28 0 -54 -21q2 -31 -20 -60q-5 -7 -12.5 -11t-12.5 -4q-9 0 -9 11q0 14 10 27t28 31q2 17 -7.5 26.5t-25.5 9.5q-22 0 -41 -18.5t-19 -49.5q0 -18 6 -33t18 -36q10 -17 15.5 -29.5
t5.5 -26.5q0 -4 -2 -14q-3 -13 -18 -13q-8 0 -15 4q-26 13 -48 13q-23 0 -36 -17q-10 13 -10 21q0 9 6 11q10 5 25 5q29 0 65 -25q4 -2 5 -2q6 0 6 10q0 15 -22 42q-17 26 -25.5 42t-8.5 37q0 39 29.5 62.5t63.5 23.5q19 0 32 -8t16 -24q29 19 54 19z" />
    <glyph glyph-name="uni10FD" unicode="&#x10fd;" horiz-adv-x="230" 
d="M184.5 464q-24.5 -17 -39.5 -43q-17 -31 -17 -71q0 -44 22 -103q19 -49 19 -98q0 -64 -37 -108q-28 -34 -63 -34q-28 0 -42 20.5t-14 51.5q0 15 3 28q24 14 37 25t17 31q2 11 -3 16.5t-14 5.5q-12 0 -22 -9q-30 -26 -38 -75q-35 -19 -63 -19q-22 0 -34.5 13t-12.5 38
q0 28 16 69q-19 -39 -19 -71q0 -25 13 -39t38 -14q27 0 62 16q-1 -42 22.5 -68t61.5 -26q22 0 43 10t37 29q44 51 44 130q0 52 -21 110q-20 53 -20 87q0 21 8 47t28 44.5t41 15.5q20 -3 30 -15.5t10 -29.5q0 -22 -14 -39t-31 -13q12 -15 27 -15q17 0 29 16t12 40
q0 27 -21 45.5t-44 18.5q-26 0 -50.5 -17zM44 148q4 5 8 5q2 0 2 -3t-3 -6q-9 -15 -31 -27q14 21 24 31z" />
    <glyph glyph-name="uni10FE" unicode="&#x10fe;" horiz-adv-x="223" 
d="M170 271q-15 17 -39 31q-15 9 -32 9q-29 0 -43 -30v-17q5 15 27 15q11 0 21 -5q28 -16 43 -39q-105 -56 -125 -160q-2 -14 -2 -20q0 -25 12 -40t35 -15q37 0 69.5 25t52 64.5t19.5 82.5q0 34 -13 63q23 13 57 27q3 -1 17 -5t26 -4q13 0 20 6q8 7 8 13t-8 10t-22 4
q-4 0 -18 -2q-19 -4 -42 -11q-25 10 -39.5 24t-14.5 29t15 29t43 24q-30 -10 -45.5 -24t-15.5 -30q0 -31 51 -54q-11 -4 -23 -9.5t-19 -8.5zM292 267q7 0 8 -3t-6 -4l-7 -1q-5 0 -25 5q12 3 30 3zM168 163q0 -37 -15 -73t-38 -59t-45 -23q-12 0 -19 8t-7 22q0 10 3 20
q23 92 112 155q9 -24 9 -50z" />
    <glyph glyph-name="zero" unicode="0" horiz-adv-x="284" 
d="M172.5 39q42.5 39 77 100t50.5 122q9 33 9 67q0 46 -16 76.5t-45 30.5q-30 0 -68.5 -31.5t-73.5 -82t-56 -104.5q-25 -66 -25 -120q0 -44 16.5 -70.5t48.5 -26.5q40 0 82.5 39zM278 375q0 -56 -31.5 -144.5t-76 -155t-80.5 -66.5q-35 0 -35 54q0 56 33.5 144t79.5 154.5
t79 66.5q31 0 31 -53z" />
    <glyph glyph-name="one" unicode="1" horiz-adv-x="205" 
d="M151 256q-47 -80 -76 -137t-50 -119q18 4 27 4q8 0 17 -3q16 57 38.5 107.5t65.5 138.5q59 120 80 182l2 7q0 3 -2 3t-4 -2t-3 -4q-52 -89 -106 -148t-97 -90q-3 -2 -2 -4.5t5 0.5q86 55 155 152q-10 -19 -50 -87z" />
    <glyph glyph-name="two" unicode="2" horiz-adv-x="307" 
d="M299 418.5q10 -16.5 7 -43.5q-7 -57 -57 -112t-116 -102q-39 -27 -82 -74t-51 -85v-2q0 -5 3 -5q2 0 5 8q7 30 32 30q19 0 47 -16q31 -16 55 -16q36 0 59 31t32 82q1 2 -1.5 3t-3.5 -2q-16 -84 -61 -84q-19 0 -43 14q-34 18 -52 18q-22 0 -43 -17q22 28 48 50.5t67 48.5
q58 35 93.5 61t62.5 64t32 88q3 34 -13 59.5t-56 25.5q-33 0 -64.5 -24.5t-54.5 -62.5q-26 42 -77 68q-1 0 0 -1q52 -28 75 -70q-16 -27 -24.5 -54t-8.5 -49q0 -13 6 -22t15 -9q14 0 24 23q10 20 10 51q0 10 -2 28q15 37 45 75.5t63 38.5q19 0 29 -16.5zM161 301
q0 -24 -7 -42q-3 -10 -7 -10q-2 0 -2.5 4.5t0.5 11.5q3 25 15 51q1 -5 1 -15z" />
    <glyph glyph-name="three" unicode="3" horiz-adv-x="293" 
d="M307 426q16 -19 16 -45q0 -9 -1 -13q-7 -47 -38 -78t-84 -45q46 -24 46 -84q0 -38 -20 -75t-57 -61.5t-84 -24.5q-35 0 -60 16t-25 50q0 5 2 19q7 32 38 56.5t66 24.5q6 0 18 -2q4 -2 4.5 -4t-3.5 -2q-10 2 -15 2q-22 0 -39.5 -16.5t-27 -40.5t-9.5 -44q0 -23 10 -38
t32 -15q33 0 66.5 30.5t55.5 74.5t22 79q0 40 -29 52q-18 -5 -35 -5q-12 0 -12 5q0 3 5 6t13 3q16 0 28 -4q41 21 68.5 59t33.5 83q1 4 1 11q0 18 -9 27.5t-23 9.5q-24 0 -45 -22.5t-28 -49.5q6 -26 6 -39q0 -15 -5 -25q-7 -16 -20 -16q-9 0 -16 7.5t-9 17.5t-2 17
q0 37 23 67q-26 37 -81 68q56 -29 83 -66q20 25 45 37t51 12q28 0 44 -19zM190 331q0 8 -4 30q-7 -21 -7 -40q0 -14 4 -14q2 0 5 8q2 5 2 16z" />
    <glyph glyph-name="four" unicode="4" horiz-adv-x="330" 
d="M269 241q49 97 70 150q40 19 70 42q14 11 22.5 22t8.5 20q0 18 -31 18q-37 0 -90.5 -20.5t-107 -54.5t-87.5 -71q-57 1 -99.5 32.5t-42.5 82.5q0 50 42 103q-44 -54 -44 -103q0 -50 41.5 -84t97.5 -37q-56 -63 -56 -145q0 -28 8 -62q-23 -9 -23 -16q0 -3 4 -5t9 -2
q8 0 14.5 4.5t5.5 12.5q27 2 70 -11l21 -6q-31 -61 -48 -111q17 5 28 5q7 0 16 -3q16 49 38 104q35 -2 61.5 20.5t26.5 59.5q0 5 -2 17q-1 7 -5 5.5t-2 -6.5q4 -8 4 -20q0 -25 -18 -45t-43 -16q-5 0 -15 2q18 40 56 118zM328 392q-78 -35 -157 -44q33 35 80 66.5t91.5 51
t68.5 19.5q21 0 21 -12q0 -7 -7.5 -17.5t-19.5 -18.5q-32 -23 -63 -38q8 20 11 31q2 6 -1.5 7.5t-5.5 -4.5zM79 137q-3 15 -3 30q0 49 26 93.5t64 80.5q30 3 73 14t85 29q-27 -56 -78 -140q-44 -74 -64 -113q-5 1 -25.5 7t-40.5 6q-13 0 -31 -5q-4 -2 -6 -2z" />
    <glyph glyph-name="five" unicode="5" horiz-adv-x="331" 
d="M162.5 25q-38.5 -25 -80.5 -25t-63.5 24.5t-18.5 57.5q6 43 43.5 70t82.5 27q25 0 48.5 -12t37.5 -33q13 29 16 60q1 6 1 18q0 28 -10.5 47t-35.5 19q-19 0 -39 -17q-32 -50 -44 -50q-2 0 -2 4q4 21 38 50q20 33 33.5 73t13.5 74q0 2 6 5t10 4q3 0 2 -13q-10 -40 -8 -33
q10 21 19 30t19 9q9 0 21 -6t26 -15q9 -6 18 -6q12 0 19 11t5 26v1q0 4 2 7t4 3t4 -3t1 -8q-4 -26 -19 -45t-36 -19q-12 0 -27 9q-20 14 -33 14q-19 0 -30 -28q-12 -33 -18 -45.5t-20 -36.5q23 15 43 15q34 0 54 -26.5t20 -62.5q0 -8 -2 -22q-9 -45 -33 -82q2 -14 2 -20
q0 -50 -45 -75q-1 0 -1 0.5t1 0.5q21 12 31.5 31t10.5 40q0 7 -2 19q-26 -41 -64.5 -66zM57 144.5q-31 -29.5 -31 -72.5q0 -25 14.5 -44t41.5 -19q39 0 73.5 36t55.5 86q-14 20 -35 32t-45 12q-43 -1 -74 -30.5z" />
    <glyph glyph-name="six" unicode="6" horiz-adv-x="321" 
d="M98 226q46 85 116.5 157t150 116t152.5 48q3 1 3.5 3t-3.5 2q-74 -4 -161.5 -43t-164.5 -107t-121 -154q-19 9 -44 9q-37 0 -85 -24q-1 -1 0 -1q46 23 84 23q25 0 43 -9q-14 -28 -20 -42q-32 -74 -32 -128q0 -36 14.5 -56.5t40.5 -20.5q43 0 97 51q37 35 66.5 95.5
t30.5 109.5q0 34 -11 51t-29 17q-26 0 -58 -32t-54 -84q-11 16 -15 19zM97 224q9 -11 14 -21q-1 -1 -8 -21q-16 -49 -16 -97q0 -20 3.5 -32t9.5 -12t15 14q17 28 17 73q0 29 -7 55q6 29 22 59t34.5 49t31.5 19q19 0 16 -42q-5 -59 -36 -121.5t-64 -102.5q-29 -33 -50 -33
q-14 0 -22.5 14.5t-8.5 37.5q0 13 3 28q10 55 46 133zM128 130q0 -18 -3 -32q-3 -13 -6 -13t-3 14q-1 31 7 76q5 -18 5 -45z" />
    <glyph glyph-name="seven" unicode="7" horiz-adv-x="249" 
d="M209 276.5q-29 -47.5 -78 -118.5q-66 -96 -105 -163.5t-66 -149.5q11 4 23 -5.5t22 -28.5q18 92 58 175.5t108 202.5q48 84 74 137.5t34 97.5v2q0 5 -4 5t-6 -9q-4 -23 -20.5 -35t-39.5 -12t-43 12q-30 18 -49 18q-21 0 -46 -22q12 26 14 35v2q0 7 -6 8.5t-7 -5.5
q0 -26 -12 -50q-20 -17 -33 -38t-1 -21q8 0 17 12.5t25 48.5q7 6 18 6q9 0 16.5 -4.5t19.5 -12.5q28 -18 64 -18q46 0 71 28q-19 -50 -48 -97.5z" />
    <glyph glyph-name="eight" unicode="8" horiz-adv-x="257" 
d="M274.5 317q32.5 35 32.5 79q0 26 -15 40t-38 14q-26 0 -52 -15.5t-42 -42.5q-20 -34 -20 -76q0 -35 14 -66q-66 -34 -105.5 -69.5t-47.5 -90.5q-1 -7 -1 -20q0 -34 19 -52t48 -18q24 0 50.5 12.5t47.5 34.5q52 56 52 122q0 43 -23 91q48 22 80.5 57zM261.5 327.5
q-30.5 -39.5 -70.5 -60.5q-18 45 -18 80q0 19 6 37q9 27 32 43.5t45 16.5q16 0 26 -9.5t10 -28.5q0 -39 -30.5 -78.5zM181 144q0 -56 -43 -103q-16 -17 -35.5 -27t-37.5 -10q-20 0 -32.5 13.5t-12.5 40.5q0 12 1 18q7 51 41 92t95 75q24 -58 24 -99z" />
    <glyph glyph-name="nine" unicode="9" horiz-adv-x="348" 
d="M267 207q-22 -65 -67 -137t-97 -125.5t-96 -68.5q-16 -6 -32 -6q-29 0 -48.5 18.5t-19.5 43.5q0 39 23.5 61t53.5 22q22 0 37 -13t14 -37q0 -1 1 -1.5t1 0.5q1 26 -14.5 40.5t-39.5 14.5q-31 0 -56.5 -23t-26.5 -63q0 -27 22.5 -47.5t57.5 -20.5q16 0 31 4
q49 13 107 63.5t107.5 120.5t74.5 138q17 -6 37 -6q43 0 91 29q-48 -27 -90 -27q-21 0 -37 6q30 77 30 142q0 46 -16.5 73t-45.5 27q-40 0 -91 -51q-35 -36 -59.5 -98t-19.5 -111q4 -33 15.5 -49.5t28.5 -16.5q26 0 55.5 33.5t49.5 89.5q15 -21 19 -25zM268 210q-7 7 -18 26
l6 21q12 45 12 86q0 24 -4 39.5t-11 15.5q-6 0 -15 -15q-14 -24 -14 -63q0 -37 10 -65q-5 -30 -19.5 -60.5t-32 -50.5t-29.5 -20q-18 0 -18 41q2 60 29.5 125t58.5 104q26 32 48 32q17 0 26.5 -21t6.5 -55q-9 -76 -36 -140zM228 319q0 8 2 22q1 13 5 13q2 0 4 -14
q1 -6 1 -20q0 -18 -4 -56q-8 26 -8 55z" />
    <glyph glyph-name="fraction" unicode="&#x2044;" horiz-adv-x="249" 
d="M229 403q-2 -55 25 -92q1 -1 1 1q-26 39 -23 95q32 55 49.5 90.5t17.5 55.5q0 19 -11 19q-12 0 -26 -24q-12 -22 -21.5 -51.5t-11.5 -52.5l-212 -348q-17 -28 -17 -52q0 -19 10.5 -30.5t27.5 -13.5q-14 8 -14 24q0 20 25 61zM244.5 494q7.5 22 16.5 37q6 10 8 10
q1 0 1 -3q0 -4 -3 -13q-13 -37 -33 -73q3 20 10.5 42z" />
    <glyph glyph-name="period" unicode="." horiz-adv-x="71" 
d="M19 49.5q-9 -10.5 -9 -24.5q0 -11 5.5 -18t15.5 -7q12 0 21 10t9 24q0 11 -6 18.5t-16 7.5q-11 0 -20 -10.5z" />
    <glyph glyph-name="comma" unicode="," horiz-adv-x="77" 
d="M9.5 49q-9.5 -11 -9.5 -25q0 -11 7.5 -18.5t18.5 -5.5q-10 -23 -34 -41q-3 -2 -2 -3.5t3 -0.5q23 12 41 32.5t18 45.5q0 12 -6 19.5t-16 7.5q-11 0 -20.5 -11z" />
    <glyph glyph-name="colon" unicode=":" horiz-adv-x="99" 
d="M47 159q-9 -10 -9 -24q0 -11 6 -18.5t16 -7.5q11 0 20 10.5t9 24.5q0 11 -5.5 18t-15.5 7q-12 0 -21 -10zM19 49.5q-9 -10.5 -9 -24.5q0 -11 5.5 -18t15.5 -7q12 0 21 10t9 24q0 11 -6 18.5t-16 7.5q-11 0 -20 -10.5z" />
    <glyph glyph-name="semicolon" unicode=";" horiz-adv-x="90" 
d="M38 159q-9 -10 -9 -24q0 -11 6 -18.5t15 -7.5q11 0 20.5 10.5t9.5 23.5q0 11 -6 18.5t-16 7.5q-11 0 -20 -10zM9.5 49q-9.5 -11 -9.5 -25q0 -11 7.5 -18.5t18.5 -5.5q-10 -23 -34 -41q-3 -2 -2 -3.5t3 -0.5q23 12 41 32.5t18 45.5q0 12 -6 19.5t-16 7.5q-11 0 -20.5 -11z
" />
    <glyph glyph-name="ellipsis" unicode="&#x2026;" horiz-adv-x="211" 
d="M19 49.5q-9 -10.5 -9 -24.5q0 -11 5.5 -18t15.5 -7q12 0 21 10t9 24q0 11 -6 18.5t-16 7.5q-11 0 -20 -10.5zM89 49.5q-9 -10.5 -9 -24.5q0 -11 5.5 -18t15.5 -7q12 0 21 10t9 24q0 11 -6 18.5t-16 7.5q-11 0 -20 -10.5zM159 49.5q-9 -10.5 -9 -24.5q0 -11 5.5 -18
t15.5 -7q12 0 21 10t9 24q0 11 -6 18.5t-16 7.5q-11 0 -20 -10.5z" />
    <glyph glyph-name="exclam" unicode="!" horiz-adv-x="191" 
d="M227 562q14 -13 14 -34q0 -14 -9 -34l-144 -298q2 -21 -1.5 -46t-11.5 -43q-8 -21 -21 -21q-7 0 -11.5 7.5t-4.5 18.5q0 20 11 49t29 67q-10 48 -42 82q34 -32 43 -79l119 273q1 2 8 17t7 28q0 18 -21 28q21 -2 35 -15zM85 189q-14 -32 -20 -62q-1 -3 -1 -8q0 -7 2 -7
q3 0 7 9q12 27 12 68zM56 52.5q6 -7.5 6 -18.5q0 -14 -9 -24t-21 -10q-9 0 -15.5 7t-6.5 17q0 14 9 25t21 11q10 0 16 -7.5z" />
    <glyph glyph-name="exclamdown" unicode="&#xa1;" horiz-adv-x="190" 
d="M230.5 527.5q9.5 10.5 9.5 23.5q0 11 -6 18.5t-16 7.5q-12 0 -21 -10.5t-9 -25.5q0 -10 6.5 -17t15.5 -7q11 0 20.5 10.5zM171 346q9 -47 43 -79h0.5h0.5q-33 33 -43 82q19 39 30 66.5t11 47.5q0 12 -5 20t-12 8q-12 0 -20 -21q-8 -18 -12 -43.5t-2 -45.5l-144 -298
q-8 -17 -8 -34q0 -21 13.5 -34t34.5 -15q-20 9 -20 28q0 13 6.5 27.5t7.5 17.5zM168 424q3 19 9 32q5 9 6 9q3 0 3 -7q0 -5 -1 -8q-6 -27 -19 -62q-1 17 2 36z" />
    <glyph glyph-name="question" unicode="?" horiz-adv-x="257" 
d="M295.5 562q11.5 -13 11.5 -35q0 -26 -15 -55q-24 -45 -48.5 -80.5t-56.5 -77.5q-29 -38 -46.5 -63.5t-32.5 -54.5q2 -21 -1.5 -46t-11.5 -43q-8 -21 -21 -21q-7 0 -11.5 7.5t-4.5 18.5q0 7 1 11q6 41 37 99q-8 46 -42 82q35 -34 44 -79q20 36 67 104q44 65 70 108t38 76
q5 13 5 26t-6.5 20t-16.5 7q-20 0 -42.5 -23t-33.5 -51q2 -14 2 -25q0 -31 -9 -54q-7 -19 -19 -19q-8 0 -13.5 9.5t-4.5 23.5q2 23 10.5 47t20.5 41q-9 17 -26.5 32t-36.5 23q18 -6 36.5 -20.5t27.5 -31.5q18 25 42.5 41t51.5 16q23 0 34.5 -13zM177 486q-11 -25 -16 -56v-6
q0 -7 2 -7t7 8q9 22 7 61zM105 189q-14 -32 -20 -62q-1 -3 -1 -8q0 -7 2 -7q3 0 7 9q12 27 12 68zM76 52.5q6 -7.5 6 -18.5q0 -14 -9 -24t-21 -10q-9 0 -15.5 7t-6.5 17q0 14 9 25t21 11q10 0 16 -7.5z" />
    <glyph glyph-name="questiondown" unicode="&#xbf;" horiz-adv-x="237" 
d="M281 567.5q6 -7.5 6 -18.5q0 -13 -9.5 -23.5t-20.5 -10.5q-9 0 -15 7.5t-6 18.5q0 14 9 24t20 10q10 0 16 -7.5zM221 353q10 -48 42 -82q-33 32 -44 79q-23 -40 -66 -103q-42 -62 -69.5 -106.5t-39.5 -78.5q-5 -15 -5 -25q0 -13 6.5 -20.5t16.5 -7.5q4 0 10 2q19 6 38 27
t28 45q-2 14 -2 25q0 31 9 55q8 18 20 18q8 0 13 -9.5t4 -23.5q-2 -24 -10 -47.5t-20 -40.5q8 -17 25.5 -32t37.5 -23h-1q-18 7 -37 21t-27 31q-16 -24 -41 -40.5t-53 -16.5q-22 0 -34 13t-12 34q0 27 16 56q24 45 46.5 78t59.5 82q29 38 46.5 63t31.5 53q-1 5 -1 16
q0 42 14 73q8 21 21 21q7 0 11.5 -7.5t4.5 -18.5q0 -7 -1 -11q-7 -42 -38 -99zM232 448q1 4 1 9q0 6 -2 6t-7 -9q-6 -13 -9 -32t-2 -36q13 35 19 62zM141 121.5q-2 -16.5 0 -32.5q10 27 15 56v6q0 7 -2 7q-3 0 -6 -8q-5 -12 -7 -28.5z" />
    <glyph glyph-name="asterisk" unicode="*" horiz-adv-x="249" 
d="M118 200q0 11 9 40q29 -27 62 -47q2 -1 2 0t-1 2q-28 28 -52 58q18 2 25 2q23 0 31 -9q15 13 15 21q0 6 -9 7q-14 2 -23 2q-12 0 -36 -4q12 26 30 59q1 2 1 3t-2 -1q-25 -23 -47 -60q-24 34 -18 46q-12 4 -20 4q-12 0 -8 -12q10 -25 29 -47q-32 -10 -64 -27q-2 -1 -1 -2
t2 0q40 9 67 14q-16 -33 -17 -58v-3q0 -8 7 -8q10 0 21 9q-3 5 -3 11z" />
    <glyph glyph-name="numbersign" unicode="#" horiz-adv-x="295" 
d="M285 271q0 -7 -16 -14q-17 -8 -45 -8q-10 0 -28 2q-13 -28 -16 -34q23 0 42 -4q34 -5 34 -16q0 -7 -16 -14q-9 -4 -16 -5q-9 6 -28 11q-6 1 -13.5 2t-17.5 1q-1 -2 -17 -23l18 -18q-9 7 -18 17q-1 -1 -23 -26q-1 -1 -2 0t0 3q12 18 18 31l-10 17l-28 -2l-17 -45
q-11 -29 -11 -47q0 -11 4 -18q0 -1 -2 -1q-21 15 -21 47q0 21 10 42l7 17l-59 -14q-3 -1 -4 0t2 2q27 15 68 29l26 58q-30 -6 -64 -15q-2 -1 -3 0t1 2q29 16 65 27q-3 42 8 76q8 22 21 22q7 0 12 -8.5t5 -21.5q0 -18 -13 -59q23 4 45 6q2 10 4 26v7q0 14 -3 23l9 15
q11 12 16 12q12 0 9 -38q-4 -28 -8 -44q20 0 40 -3q35 -7 35 -17zM108 277l4 1q9 26 12 54v6q0 8 -2 8q-3 0 -6 -9q-8 -23 -8 -60zM178 267q-31 0 -47 -2q-4 -12 -7.5 -20.5t-5.5 -14.5l6 -17q11 2 37 4q11 26 17 50zM238 257q0 3 -14 6l-22 3l-5 -12q7 -1 20 -1q21 0 21 4z
M111 210q6 2 10 2l-4 14zM150 193h-17l9 -15z" />
    <glyph glyph-name="slash" unicode="/" horiz-adv-x="229" 
d="M239 393q-2 -55 25 -92q1 -1 1 1q-26 39 -23 95q32 55 49.5 90.5t17.5 55.5q0 19 -11 19q-12 0 -26 -24q-12 -22 -21.5 -51.5t-11.5 -52.5l-212 -348q-17 -28 -17 -52q0 -19 10.5 -30.5t27.5 -13.5q-14 8 -14 24q0 20 25 61zM254.5 484q7.5 22 16.5 37q6 10 8 10
q1 0 1 -3q0 -4 -3 -13q-13 -37 -33 -73q3 20 10.5 42z" />
    <glyph glyph-name="backslash" unicode="\" horiz-adv-x="359" 
d="M300 75q25 -41 25 -61q0 -16 -14 -24q17 2 27.5 13.5t10.5 30.5q0 24 -17 52l-212 348q-2 23 -11.5 52.5t-21.5 51.5q-14 24 -26 24q-5 0 -8 -5t-3 -14q0 -21 17 -55t50 -91q3 -56 -23 -95q0 -2 1 -1q27 37 25 92zM82 515q-4 12 -4 14q0 3 1 3q3 0 9 -11q9 -15 16.5 -37
t10.5 -42q-20 36 -33 73z" />
    <glyph glyph-name="parenleft" unicode="(" horiz-adv-x="179" 
d="M128.5 -100q1.5 0 -0.5 2q-42 49 -42 153q0 63 14 129.5t29 101.5q49 28 103.5 83t83.5 107q13 24 13 41q0 19 -16 19q-8 0 -22 -6q-34 -16 -75 -58.5t-76.5 -96.5t-51.5 -103q-41 -18 -78 -18q-48 0 -78.5 27.5t-30.5 82.5q0 23 8 58q-9 -34 -9 -61q0 -55 32.5 -83
t81.5 -28q37 0 71 15q-25 -86 -25 -166q0 -62 16.5 -113.5t49.5 -84.5q1 -1 2.5 -1zM232.5 376.5q-48.5 -49.5 -101.5 -82.5q16 45 46.5 94.5t63.5 87t55 48.5q8 4 15 4q10 0 10 -14q0 -16 -11 -35q-29 -53 -77.5 -102.5z" />
    <glyph glyph-name="parenright" unicode=")" horiz-adv-x="279" 
d="M150.5 536q-0.5 -1 0.5 -2q42 -49 42 -151q0 -63 -14 -129.5t-29 -103.5q-49 -27 -104 -82.5t-83 -107.5q-13 -22 -13 -41t16 -19q8 0 21 6q34 16 75.5 58.5t77 96.5t51.5 103q38 18 78 18q47 0 77.5 -27.5t30.5 -81.5q0 -30 -8 -59h1q9 35 9 61q0 55 -33 83.5t-82 28.5
q-37 0 -71 -15q26 84 26 166q0 62 -16.5 113.5t-50.5 84.5q-1 1 -1.5 0zM46.5 59.5q48.5 49.5 101.5 83.5q-16 -46 -46.5 -95.5t-63.5 -87t-55 -48.5q-8 -4 -15 -4q-11 0 -11 14t12 36q29 52 77.5 101.5z" />
    <glyph glyph-name="braceleft" unicode="{" horiz-adv-x="235" 
d="M107 -34q0 2 -5 -1q-9 -6 -25 -6q-10 0 -16.5 4.5t-6.5 13.5q0 15 18 39q75 98 75 149q0 22 -14 36q14 18 22 36t18 50q4 11 8.5 24t10.5 29q7 18 20 28.5t27 10.5q6 0 6 1q0 2 -10 5q-3 1 -11 1q-29 0 -54 -38q-11 -17 -18.5 -38.5t-9.5 -26.5q-8 -26 -16 -44.5
t-21 -35.5q-2 0 -14.5 -3t-25.5 -12q-19 -13 -19 -26q0 -8 11 -8q10 0 25 7q19 10 41 29q3 -6 3 -14q0 -18 -18 -52t-60 -96q-18 -25 -18 -47q0 -15 9 -23t24 -8q19 0 41 12q3 2 3 4zM68 172q-6 -2 -7 -2q-3 0 -3 3q0 5 9 11q14 9 33 12q-19 -19 -32 -24z" />
    <glyph glyph-name="braceright" unicode="}" horiz-adv-x="235" 
d="M147.5 360q0.5 -2 4.5 1q10 6 25 6q24 0 24 -18q0 -14 -18 -38q-76 -99 -76 -151q0 -23 14 -35q-15 -19 -23 -37.5t-18 -50.5l-17 -51q-7 -17 -20.5 -28t-27.5 -11q-5 0 -5 -1q0 -2 10 -5q3 -1 11 -1q30 0 53 38q16 25 28 66q9 27 16.5 44.5t20.5 34.5q28 6 40 15
q20 14 20 26q0 8 -11 8q-10 0 -25 -7q-22 -12 -41 -29q-3 6 -3 15q0 19 17.5 52.5t60.5 95.5q18 25 18 47q0 14 -9 22t-24 8q-19 0 -41 -12q-4 -2 -3.5 -4zM186 155l6 2q5 0 5 -4q0 -6 -9 -11q-14 -9 -33 -12q16 17 31 25z" />
    <glyph glyph-name="bracketleft" unicode="[" horiz-adv-x="277" 
d="M299.5 568q9.5 7 17.5 7q10 0 10 -13q0 -20 -21 -53t-45 -55q-31 -88 -37 -104q-28 -83 -49.5 -139.5t-44.5 -106.5q30 9 68 9q34 0 65 -8.5t50 -24.5q-39 31 -112 31q-37 0 -72 -10q-33 -61 -64 -83q-25 -18 -41 -18q-7 0 -10.5 4t-3.5 10q0 10 7 20q10 15 27 30t37 26
q29 53 55.5 115t63.5 157l27 66q-45 -35 -96 -41q50 8 97 45q18 45 29.5 71.5t24.5 45.5q8 12 17.5 19zM313 539q0 2 -2 2q-3 0 -11 -12q-21 -30 -36 -67q14 15 26.5 33.5t19.5 33.5q3 8 3 10zM78 84q-35 -22 -50 -45q-4 -7 -4 -10q0 -2 2 -2q4 0 9 4q12 10 43 53z" />
    <glyph glyph-name="bracketright" unicode="]" horiz-adv-x="277" 
d="M267 14q0 -14 -14 -14q-16 0 -41 18q-31 22 -64 83q-35 10 -72 10q-73 0 -112 -31q19 16 50 24.5t65 8.5q38 0 68 -9q-23 50 -44.5 106.5t-49.5 139.5q-6 16 -37 104q-24 22 -45 55t-21 53q0 13 10 13q8 0 17.5 -7t17.5 -19q13 -19 24.5 -45.5t29.5 -71.5q47 -37 97 -45
q-51 6 -96 41l27 -66q37 -95 63.5 -157t55.5 -115q20 -11 37 -26t27 -30q7 -11 7 -20zM-13.5 495.5q12.5 -18.5 26.5 -33.5q-15 37 -36 67q-8 12 -11 12q-1 0 -1 -2q0 -6 2 -10q7 -15 19.5 -33.5zM252 27q2 0 2 2t-5 10q-15 23 -50 45q31 -43 43 -53q5 -4 10 -4z" />
    <glyph glyph-name="hyphen" unicode="-" horiz-adv-x="265" 
d="M141.5 125q-0.5 -1 -2.5 0q-14 3 -27 3q-21 0 -21 -5q0 -3 12 -5q21 -4 45 -4q46 0 114 22q2 1 3 -0.5t-1 -2.5q-33 -20 -70 -31.5t-73 -11.5q-24 0 -41 4q-14 2 -22 6.5t-8 9.5q0 7 14 14q18 8 39 8q18 0 36 -5q3 -1 2.5 -2z" />
    <glyph glyph-name="endash" unicode="&#x2013;" horiz-adv-x="400" 
d="M141.5 125q-0.5 -1 -2.5 0q-14 3 -27 3t-13 -2t11.5 -4.5t22.5 -3.5q35 -4 75 -4q86 0 154 22q2 1 3 -0.5t-1 -2.5q-32 -20 -81.5 -31.5t-107.5 -11.5q-36 0 -65 4q-19 2 -36.5 8t-17.5 14q0 4 8 8q18 8 39 8q18 0 36 -5q3 -1 2.5 -2z" />
    <glyph glyph-name="emdash" unicode="&#x2014;" horiz-adv-x="485" 
d="M122.5 123.5q73.5 -5.5 90.5 -5.5q92 0 142 3t87 15q2 1 3 -0.5t-1 -2.5q-62 -39 -223 -39h-31q-73 3 -117 6t-29 14q3 2 8.5 6.5t10 6.5t10.5 2q-24 0 49.5 -5.5z" />
    <glyph glyph-name="underscore" unicode="_" horiz-adv-x="337" 
d="M152 -23q-41 -24 -61 -66q0 -1 1 0q22 43 64 66q60 -5 80 -5q22 0 31 2q14 2 22.5 8.5t8.5 13.5t-9 12t-27 5q-19 0 -41 -4.5t-38 -11.5l-100 15q-12 2 -19 2q-23 0 -40.5 -10t-22.5 -26q-1 -1 -0.5 -1.5t1.5 0.5q11 11 37 11q13 0 27 -2zM250 7q19 0 19 -4q0 -3 -14 -5
q-18 -3 -41 -3q-16 0 -24 1q31 11 60 11z" />
    <glyph glyph-name="quotedblbase" unicode="&#x201e;" horiz-adv-x="175" 
d="M30 34.5q-9 -10.5 -9 -23.5q0 -12 7 -20t18 -6q-11 -25 -34 -41q-3 -2 -1.5 -3.5t3.5 -0.5q23 12 40.5 32.5t17.5 45.5q0 12 -6 19.5t-16 7.5q-11 0 -20 -10.5zM102.5 34.5q-9.5 -10.5 -9.5 -23.5q0 -12 7 -20t18 -6q-9 -24 -34 -41q-2 -2 -1 -3.5t3 -0.5q22 12 40 32.5
t19 45.5q0 11 -6 19t-16 8q-11 0 -20.5 -10.5z" />
    <glyph glyph-name="quotedblleft" unicode="&#x201c;" horiz-adv-x="285" 
d="M183 510q9 10 9 24q0 12 -7 19.5t-19 6.5q10 22 35 41q2 1 1 2.5t-3 0.5q-23 -12 -40.5 -32t-18.5 -46q0 -11 6 -18.5t16 -7.5q12 0 21 10zM255 510q9 10 9 24q0 12 -7 19.5t-18 6.5q9 22 34 41q3 1 1.5 2.5t-3.5 0.5q-23 -12 -40.5 -32t-17.5 -46q0 -11 5.5 -18.5
t15.5 -7.5q12 0 21 10z" />
    <glyph glyph-name="guilsinglleft" unicode="&#x2039;" horiz-adv-x="298" 
d="M66 217q22 0 58 -11q39 6 83 21.5t77 34.5q4 2 4 0.5t-2 -3.5q-64 -47 -124 -67q49 -21 80 -48q19 -17 19 -26q0 -8 -16 -8q-17 0 -36.5 10t-35.5 25q-2 2 -1 2.5t3 -0.5q12 -12 30 -21q8 -3 10 -3t2 1q0 2 -8 10q-34 32 -66 52q-40 -11 -75 -8q-38 5 -38 18q0 6 6 12
q9 9 30 9zM71 213q-11 0 -11 -3t14 -5q10 -1 34 -1q-20 9 -37 9z" />
    <glyph glyph-name="guilsinglright" unicode="&#x203a;" horiz-adv-x="286" 
d="M222 166q-20 0 -38 4q-37 -11 -78 -33.5t-72 -46.5q-3 -3 -3.5 -1.5t2.5 3.5q53 56 111 86q-49 13 -86 35q-22 13 -22 23q0 11 24 11q34 0 66 -24q2 -1 1.5 -2.5t-2.5 0.5q-12 8 -33 16q-4 1 -9 1q-4 0 -4 -2t10 -8q42 -28 73 -41q43 19 79 19q35 0 35 -13q0 -4 -5 -11
q-12 -16 -49 -16zM226 170q10 0 16 1.5t6 3.5t-4.5 3t-10.5 1l-34 -5q13 -4 27 -4z" />
    <glyph glyph-name="quotedbl" unicode="&#x22;" horiz-adv-x="245" 
d="M143 520q9 10 9 24q0 12 -7 19.5t-19 6.5q10 22 35 41q2 1 1 2.5t-3 0.5q-23 -12 -40.5 -32t-18.5 -46q0 -11 6 -18.5t16 -7.5q12 0 21 10zM215 520q9 10 9 24q0 12 -7 19.5t-18 6.5q9 22 34 41q3 1 1.5 2.5t-3.5 0.5q-23 -12 -40.5 -32t-17.5 -46q0 -11 5.5 -18.5
t15.5 -7.5q12 0 21 10z" />
    <glyph glyph-name="quotesingle" unicode="'" horiz-adv-x="172" 
d="M143 520q9 10 9 24q0 12 -7 19.5t-19 6.5q10 22 35 41q2 1 1 2.5t-3 0.5q-23 -12 -40.5 -32t-18.5 -46q0 -11 6 -18.5t16 -7.5q12 0 21 10z" />
    <glyph glyph-name="dollar" unicode="$" horiz-adv-x="337" 
d="M317 403q18 0 31.5 13t13.5 36q0 24 -17 41t-38 18v12q0 23 -4.5 35t-10.5 12q-11 0 -17 -24q-5 -22 -5 -43q-35 -15 -55 -47q-18 -30 -18 -68q0 -36 15 -69l3 -7q-52 -105 -99 -190q-2 -5 -14 -29q-19 16 -19 50q0 12 3 27q24 13 37 23t17 28q2 9 -2.5 14.5t-12.5 5.5
q-12 0 -23 -9q-31 -23 -39 -68q-36 -17 -63 -17q-22 0 -34.5 12t-12.5 35q0 27 16 63q-19 -37 -19 -65q0 -23 13 -36t38 -13q26 0 62 15q-1 -25 9 -43.5t27 -28.5q-28 -56 -28 -86l46 9q0 30 17 64q4 -1 13 -1q22 0 43 9t38 27q43 47 43 117q0 53 -21 101l24 60l13 33
q10 -16 30 -16zM279 535q3 11 6 11t4 -10q0 -16 -1 -27q-10 -2 -13 -4q2 23 4 30zM331 430q-10 -16 -23 -16q-10 0 -18 12q14 45 17 80q15 -1 24.5 -10t9.5 -27q0 -23 -10 -39zM277 451q-3 28 -2 46l12 6q-3 -32 -10 -52zM274 444q-8 -20 -37 -85q-9 27 -9 53q0 19 6 37
q10 28 35 45q0 -30 5 -50zM228 274q12 -39 12 -68q0 -55 -38 -97q-14 -15 -31.5 -23t-33.5 -7q43 82 91 195zM114 207q5 5 8 5t3 -3q0 -7 -11.5 -16t-23.5 -14q10 16 24 28z" />
    <glyph glyph-name="plus" unicode="+" horiz-adv-x="280" 
d="M166.5 223q0.5 1 3.5 0q21 -7 39 -8h4q10 0 10 3t-13 7q-11 3 -43 10q-9 -12 -17 -20q-10 -36 -16 -92q-1 -2 -2 -2.5t-1 1.5q-2 13 -2 40q0 25 1 40q-26 -13 -51 -13q-36 0 -68 24q-1 1 -1 1.5t1 -0.5q33 -23 65 -23q27 0 55 16q1 8 5 31q-37 1 -103 -8q-3 -1 -3.5 0
t1.5 2q51 22 111 25q11 39 30 69q16 26 26 26q9 0 9 -24q0 -32 -25 -71q32 -3 57 -11q14 -4 22.5 -9t8.5 -10q0 -7 -17 -13q-12 -4 -29 -4q-27 0 -55 11q-3 1 -2.5 2zM194 290q3 8 3 11t-2 3t-10 -11q-8 -13 -18 -35q4 -1 11 -1q12 19 16 33zM153 224l10 11l-5 1z" />
    <glyph glyph-name="minus" unicode="&#x2212;" horiz-adv-x="337" 
d="M171 67q-41 -24 -61 -66q0 -1 1 0q22 43 64 66q60 -5 80 -5q22 0 31 2q14 2 22.5 8.5t8.5 13.5t-9 12t-27 5q-19 0 -41 -4.5t-38 -11.5l-100 15q-12 2 -19 2q-23 0 -40.5 -10t-22.5 -26q-1 -1 -0.5 -1.5t1.5 0.5q11 11 37 11q13 0 27 -2zM269 97q19 0 19 -4q0 -3 -14 -5
q-18 -3 -41 -3q-16 0 -24 1q31 11 60 11z" />
    <glyph glyph-name="multiply" unicode="&#xd7;" horiz-adv-x="444" 
d="M544 670q0 -2 -3 -3q-57 -20 -112 -67t-101 -112q28 -4 37 -4q-17 0 -38 3q-70 -102 -101 -214q34 14 68 14q49 0 82 -28.5t33 -83.5q0 -26 -9 -61h-1q8 29 8 59q0 54 -30.5 81.5t-78.5 27.5q-36 0 -74 -16l-6 -21q-14 -65 -10 -115q2 -27 13 -42t27 -15q12 0 25 9.5
t23 27.5q12 15 4 0q-12 -24 -28 -36.5t-32 -12.5q-27 0 -46.5 29t-20.5 78q-35 -55 -78 -100t-78 -62q-12 -6 -21 -6q-8 0 -12.5 5.5t-4.5 13.5q0 18 14 41q28 52 83 107.5t104 82.5q15 35 29 103t14 132q0 15 -2 41q-18 13 -33.5 35t-23.5 43q-4 11 -4 19q0 14 10 14
q5 0 12.5 -5t14.5 -14q31 -43 45 -99q19 -13 61 -25q49 63 109.5 109t127.5 68q4 1 4 -1zM187.5 570.5q14.5 -21.5 30.5 -35.5q-12 40 -33 71q-5 6 -8 6q-4 0 -4 -7q0 -13 14.5 -34.5zM301 492q-39 9 -58 19q9 -45 6 -98q22 39 52 79zM367 484h-2h3h-1zM53 44.5
q36 36.5 71.5 91.5t53.5 107q-53 -34 -101.5 -83.5t-77.5 -101.5q-12 -22 -12 -36t11 -14q19 0 55 36.5z" />
    <glyph glyph-name="equal" unicode="=" horiz-adv-x="303" 
d="M273 232q1 1 -2 2q-25 11 -77 23q32 33 32 74q0 54 -49 108q46 -55 46 -106q0 -43 -33 -75q-20 3 -42 3q-45 0 -84 -11q-14 -4 -23 -9.5t-9 -10.5q0 -6 18 -12q12 -4 30 -4q24 0 51 8t46 19q32 0 93 -9q2 -1 3 0zM131.5 226.5q-21.5 -6.5 -38.5 -7.5h-4q-10 0 -10 2
q0 3 13 7q26 8 75 12q-14 -7 -35.5 -13.5zM167.5 150q0.5 1 2.5 1q16 -3 31 -3q22 0 22 4t-13 5q-30 5 -52 5q-52 0 -125 -22q-2 -1 -3 0.5t1 2.5q76 43 159 43q25 0 45 -4q34 -5 34 -16q0 -7 -16 -14q-16 -8 -42 -8q-19 0 -42 5q-2 0 -1.5 1z" />
    <glyph glyph-name="greater" unicode="&#x3e;" horiz-adv-x="287" 
d="M216 196q-21 0 -41 4q-38 -11 -79 -33.5t-72 -45.5q-3 -2 -3.5 -0.5t1.5 3.5q59 57 113 85q-48 12 -85 35q-22 14 -22 24t24 10q35 0 65 -25q2 -1 1.5 -2t-2.5 0q-18 13 -32 17l-10 2l-3 -1q0 -2 9 -10q33 -23 73 -42q41 18 79 18q35 0 35 -13q0 -4 -5 -11
q-10 -15 -46 -15zM219 199q10 0 15 1.5t5 3.5q0 4 -15 4q-16 0 -34 -5q22 -4 29 -4z" />
    <glyph glyph-name="less" unicode="&#x3c;" horiz-adv-x="298" 
d="M56 227q22 0 58 -11q39 6 83 21.5t77 34.5q4 2 4 0.5t-2 -3.5q-64 -47 -124 -67q49 -21 80 -48q19 -17 19 -26q0 -8 -16 -8q-17 0 -36.5 10t-35.5 25q-2 2 -1 2.5t3 -0.5q12 -12 30 -21q8 -3 10 -3t2 1q0 2 -8 10q-34 32 -66 52q-40 -11 -75 -8q-38 5 -38 18q0 6 6 12
q9 9 30 9zM61 223q-11 0 -11 -3t14 -5q10 -1 34 -1q-20 9 -37 9z" />
    <glyph glyph-name="asciicircum" unicode="^" horiz-adv-x="259" 
d="M131 567q0 -20 -4 -38q11 -37 33.5 -78t46.5 -72q3 -3 1.5 -3.5t-3.5 2.5q-56 53 -86 111q-13 -49 -35 -86q-13 -22 -23 -22q-11 0 -11 24q0 34 24 66q1 2 2.5 1.5t-0.5 -2.5q-8 -12 -16 -33q-1 -4 -1 -9q0 -4 2 -4t8 10q28 42 41 73q-19 43 -19 79q0 35 13 35q4 0 11 -5
q16 -12 16 -49zM127 571q0 10 -1.5 16t-3.5 6t-3 -4.5t-1 -10.5l5 -34q4 13 4 27z" />
    <glyph glyph-name="percent" unicode="%" horiz-adv-x="353" 
d="M312.5 351.5q35.5 -11.5 59.5 -31.5q-26 19 -60.5 29.5t-74.5 9.5q-24 -43 -45 -77l-51 -90q19 -12 28 -24q20 40 50 64t56 24q20 0 32 -14t12 -43q0 -36 -26.5 -80t-60.5 -69q-47 -35 -85 -35q-27 0 -43 18t-15 50q-26 -66 -36 -123q-10 17 -23.5 25.5t-22.5 4.5
q25 72 112 209q-17 5 -35 5q-38 0 -84 -17q45 18 85 18q20 0 35 -4l38 55q-31 -20 -61 -20q-23 0 -36 14.5t-13 42.5q0 36 23.5 73.5t60.5 68.5q27 21 51 21q15 0 24 -8.5t9 -26.5q0 -27 -23 -67q8 3 34 7q20 32 35 71t19 71q1 9 6 9t4 -7q-4 -32 -18.5 -70.5t-33.5 -72.5
q38 1 73.5 -10.5zM225 358q-26 -4 -34 -7q-27 -43 -64 -67q-11 -7 -19 -7q-11 0 -11 11q0 9 9 18q23 24 66 42q16 18 26.5 38.5t10.5 36.5q0 20 -19 20q-16 0 -35 -15q-33 -29 -52.5 -72.5t-19.5 -75.5t24 -32q19 0 43.5 17.5t40.5 39.5q12 17 34 53zM118 311q-4 -4 -4 -7
q0 -2 2 -2q4 0 10 6q25 18 42 35q-35 -15 -50 -32zM139 189q-32 -62 -28 -120q2 -20 13 -32.5t27 -12.5q21 0 43 21q31 29 58.5 77t30.5 92q0 32 -18 32q-13 0 -30.5 -14.5t-32 -37t-19.5 -44.5q10 -22 10 -49q0 -30 -14 -48q-7 -10 -14 -10t-11.5 12t-4.5 30q0 31 12 64
q3 10 7 16q-15 17 -29 24zM178 86q1 -10 4 -10q5 0 6 9q1 5 1 16q0 24 -7 43q-7 -34 -4 -58z" />
    <glyph glyph-name="at" unicode="@" horiz-adv-x="341" 
d="M225 97q17 0 35 16q19 19 29 50t8 54q-4 32 -23.5 48.5t-49.5 16.5q-41 0 -82 -27q-38 -25 -58.5 -64t-20.5 -77q0 -40 23 -66.5t65 -26.5q45 0 78 17t33 29q0 11 -23 11q-27 0 -55 -16q-12 -6 -12 -14q0 -3 6 -8q1 -1 0.5 -1.5t-1.5 0.5q-7 4 -7 10q0 7 13 16
q29 16 56 16q13 0 21 -4t8 -11q0 -14 -29 -31q-43 -25 -100 -25q-34 0 -59.5 10.5t-37.5 31.5t-12 49q0 42 27.5 86t80.5 75q52 30 103 30q37 0 61.5 -18.5t28.5 -55.5q2 -25 -17.5 -59t-45.5 -51q-25 -17 -46 -17q-19 0 -29 17q-22 -33 -46 -47q-12 -6 -19 -6q-23 0 -23 37
q0 28 17.5 63.5t41.5 58.5q17 16 33.5 24.5t29.5 8.5q14 0 21.5 -8.5t7.5 -24.5q0 -26 -22 -64q-4 -5 -5.5 -5t0.5 5q13 25 13 46t-16 21q-12 0 -27 -12q-21 -15 -42.5 -47t-29.5 -64l-2 -16q0 -8 2.5 -13t7.5 -5q4 0 8 3q29 18 45 55q-1 6 -1 18q0 32 17 49q4 4 8 4
q7 0 7 -15q0 -20 -20 -56q7 -21 26 -21zM202 162q1 7 -1 8t-5 -6q-4 -9 -4 -21q0 -8 1 -12q6 17 9 31z" />
    </font>
</defs>
</svg>
