<svg width="27" height="19" viewBox="0 0 27 19" fill="none" xmlns="http://www.w3.org/2000/svg">
<g opacity="0.8">
<path d="M4.93867 2.67822C4.07871 3.53344 3.42934 4.51835 2.98708 5.56985C2.8923 5.79067 2.67819 5.9379 2.43599 5.9379C2.10604 5.9379 1.83577 5.668 1.83577 5.33853C1.83577 4.51836 0.947724 4.00663 0.23518 4.42022L0 4.55341L0 13.7295L0.23518 13.8662C0.947724 14.2763 1.83577 13.7646 1.83577 12.9444C1.83577 12.6149 2.10604 12.3486 2.43599 12.3486C2.67819 12.3486 2.8923 12.4923 2.98708 12.7131C3.42934 13.7646 4.07871 14.7495 4.93867 15.6082C7.90118 18.5664 12.5029 19.1378 16.1042 16.9927L26.7082 9.41135C26.9117 9.28868 26.9117 8.99427 26.7082 8.8751L16.1042 1.29024C12.5029 -0.854824 7.90118 -0.280016 4.93867 2.67822ZM18.1506 13.2914C16.6658 14.3219 15.2829 15.6117 13.5594 16.2251C9.94755 17.5675 5.41956 15.4435 4.528 11.6756C6.87273 15.5066 11.7798 16.4845 15.3074 13.7751C17.5679 12.3661 19.8424 11.0272 22.2749 9.90557C20.9622 11.1218 19.5652 12.2224 18.1506 13.2914Z" fill="#E1E1E1"/>
</g>
</svg>
