<svg width="16" height="16" viewBox="0 0 16 16" fill="none" xmlns="http://www.w3.org/2000/svg">
<path d="M14.6662 10.7933C14.6662 13.2201 13.2195 14.6667 10.7928 14.6667H9.99945C9.63281 14.6667 9.33281 14.3667 9.33281 14.0001V10.1534C9.33281 9.97341 9.47945 9.82005 9.65945 9.82005L10.8328 9.80005C10.9262 9.79341 11.0062 9.72669 11.0262 9.63341L11.2595 8.36005C11.2795 8.24005 11.1862 8.12669 11.0594 8.12669L9.63945 8.14669C9.45281 8.14669 9.30617 8.00005 9.29953 7.82005L9.27281 6.1867C9.27281 6.08004 9.35945 5.98671 9.47281 5.98671L11.0728 5.96004C11.1862 5.96004 11.2728 5.87338 11.2728 5.76005L11.2462 4.16003C11.2462 4.0467 11.1595 3.96004 11.0462 3.96004L9.24617 3.98671C8.13945 4.00671 7.2595 4.91337 7.2795 6.02004L7.31282 7.85337C7.31949 8.04005 7.17282 8.18669 6.98616 8.19341L6.18615 8.20669C6.07282 8.20669 5.98616 8.29333 5.98616 8.40669L6.00616 9.67341C6.00616 9.78669 6.09282 9.87333 6.20615 9.87333L7.00616 9.86005C7.19283 9.86005 7.33948 10.0067 7.34614 10.1867L7.40615 13.9867C7.41281 14.3601 7.11281 14.6667 6.73948 14.6667H5.20615C2.77949 14.6667 1.33282 13.2201 1.33282 10.7867V5.2067C1.33282 2.78004 2.77949 1.33337 5.20615 1.33337H10.7928C13.2195 1.33337 14.6662 2.78004 14.6662 5.2067V10.7933Z" fill="white"/>
</svg>
