<svg width="68" height="93" viewBox="0 0 68 93" fill="none" xmlns="http://www.w3.org/2000/svg">
<path d="M19.9891 10.199C23.1278 10.199 26.1866 11.2865 28.6071 13.2758L29.352 13.8858L29.2854 12.9177C28.9928 8.19638 30.735 3.59439 34.0599 0.278829L34.1397 0.199219L34.2195 0.278829C37.4911 3.54134 39.2335 8.06374 39.0074 12.6923L38.9674 13.6074L39.6855 13.0503C42.0927 11.1936 44.9654 10.199 47.9977 10.199L48.011 10.2122C48.011 14.3633 46.1224 18.2359 42.8508 20.8353L42.1061 21.4188L43.037 21.578C44.9787 21.9095 46.7477 22.8114 48.1441 24.1906C46.3221 25.9678 43.9147 26.9492 41.3613 26.9492C41.3347 26.9492 41.3082 26.9492 41.2949 26.9492C37.8104 26.9226 34.9909 24.0978 34.8447 20.6098L34.818 19.9865C35.7357 21.0872 36.906 22.0024 38.1429 22.692C40.324 23.9121 42.771 24.5752 45.2048 24.6283C41.0288 24.0049 36.3076 21.4851 35.0042 17.3208C37.0258 17.7584 39.1271 17.3473 40.989 16.5648C43.1834 15.6232 45.0985 14.1776 46.588 12.4138C44.234 14.5755 40.7363 16.3791 37.4513 16.2067C35.8687 16.1272 34.592 14.8673 34.5255 13.2758L34.1264 3.85961L33.7274 13.2758C33.6609 14.854 32.3975 16.1139 30.8149 16.2067C27.5299 16.3924 24.072 14.5357 21.7446 12.3342C24.3779 15.5436 28.8332 18.1961 33.1157 17.334C31.7591 21.5514 26.692 23.8325 22.4894 24.2436C26.3861 24.2967 30.9479 22.8909 33.4615 19.7478L33.4215 20.6098C33.2885 23.806 30.8814 26.538 27.6895 26.8829C27.3438 26.9226 26.9846 26.9359 26.6255 26.9359C24.072 26.9359 21.6649 25.9545 19.8428 24.1774C21.2393 22.8113 23.0081 21.9095 24.9498 21.5647L25.8808 21.4056L25.136 20.822C21.851 18.2359 19.9758 14.3633 19.9758 10.199H19.9891Z" fill="#C4C4C4"/>
<path d="M9.93465 51.4583C4.45528 51.4583 0 47.0155 0 41.5514C0 36.0874 4.45528 31.6445 9.93465 31.6445C15.414 31.6445 19.8695 36.0874 19.8695 41.5514C19.8695 47.0155 15.414 51.4583 9.93465 51.4583ZM9.93465 34.0583C5.78522 34.0583 2.42059 37.4269 2.42059 41.5514C2.42059 45.6892 5.79852 49.0446 9.93465 49.0446C14.0841 49.0446 17.4489 45.676 17.4489 41.5514C17.4489 37.4136 14.0841 34.0583 9.93465 34.0583Z" fill="#C4C4C4"/>
<path d="M11.265 50.8621C14.9375 50.8621 17.9147 47.8932 17.9147 44.231C17.9147 40.5687 14.9375 37.5999 11.265 37.5999C7.59242 37.5999 4.61523 40.5687 4.61523 44.231C4.61523 47.8932 7.59242 50.8621 11.265 50.8621Z" fill="#C4C4C4"/>
<path d="M33.9939 51.4583C28.5145 51.4583 24.0591 47.0155 24.0591 41.5514C24.0591 36.0874 28.5145 31.6445 33.9939 31.6445C39.4733 31.6445 43.9285 36.0874 43.9285 41.5514C43.9285 47.0155 39.4733 51.4583 33.9939 51.4583ZM33.9939 34.0583C29.8445 34.0583 26.4797 37.4269 26.4797 41.5514C26.4797 45.6892 29.8578 49.0446 33.9939 49.0446C38.1433 49.0446 41.5081 45.676 41.5081 41.5514C41.5214 37.4136 38.1433 34.0583 33.9939 34.0583Z" fill="#C4C4C4"/>
<path d="M35.3362 50.8621C39.0088 50.8621 41.986 47.8932 41.986 44.231C41.986 40.5687 39.0088 37.5999 35.3362 37.5999C31.6637 37.5999 28.6865 40.5687 28.6865 44.231C28.6865 47.8932 31.6637 50.8621 35.3362 50.8621Z" fill="#C4C4C4"/>
<path d="M58.065 51.4583C52.5856 51.4583 48.1304 47.0155 48.1304 41.5514C48.1304 36.0874 52.5856 31.6445 58.065 31.6445C63.5444 31.6445 67.9997 36.0874 67.9997 41.5514C67.9997 47.0155 63.5444 51.4583 58.065 51.4583ZM58.065 34.0583C53.9156 34.0583 50.5508 37.4269 50.5508 41.5514C50.5508 45.6892 53.9289 49.0446 58.065 49.0446C62.2145 49.0446 65.5792 45.676 65.5792 41.5514C65.5792 37.4136 62.2012 34.0583 58.065 34.0583Z" fill="#C4C4C4"/>
<path d="M59.3953 50.8621C63.0679 50.8621 66.0451 47.8932 66.0451 44.231C66.0451 40.5687 63.0679 37.5999 59.3953 37.5999C55.7228 37.5999 52.7456 40.5687 52.7456 44.231C52.7456 47.8932 55.7228 50.8621 59.3953 50.8621Z" fill="#C4C4C4"/>
<path d="M21.9708 71.8281C16.4914 71.8281 12.0361 67.3853 12.0361 61.9212C12.0361 56.4572 16.4914 52.0143 21.9708 52.0143C27.4502 52.0143 31.9054 56.4572 31.9054 61.9212C31.8921 67.3853 27.4369 71.8281 21.9708 71.8281ZM21.9708 54.4281C17.8214 54.4281 14.4566 57.7967 14.4566 61.9212C14.4566 66.0458 17.8347 69.4144 21.9708 69.4144C26.1202 69.4144 29.485 66.0458 29.485 61.9212C29.485 57.7967 26.1069 54.4281 21.9708 54.4281Z" fill="#C4C4C4"/>
<path d="M23.3001 71.2312C26.9727 71.2312 29.9498 68.2623 29.9498 64.6C29.9498 60.9378 26.9727 57.9689 23.3001 57.9689C19.6276 57.9689 16.6504 60.9378 16.6504 64.6C16.6504 68.2623 19.6276 71.2312 23.3001 71.2312Z" fill="#C4C4C4"/>
<path d="M46.0299 71.8281C40.5505 71.8281 36.0952 67.3853 36.0952 61.9212C36.0952 56.4572 40.5505 52.0143 46.0299 52.0143C51.5092 52.0143 55.9647 56.4572 55.9647 61.9212C55.9647 67.3853 51.5092 71.8281 46.0299 71.8281ZM46.0299 54.4281C41.8804 54.4281 38.5158 57.7967 38.5158 61.9212C38.5158 66.0458 41.8937 69.4144 46.0299 69.4144C50.1793 69.4144 53.5441 66.0458 53.5441 61.9212C53.5441 57.7967 50.1793 54.4281 46.0299 54.4281Z" fill="#C4C4C4"/>
<path d="M47.3724 71.2312C51.0449 71.2312 54.0221 68.2623 54.0221 64.6C54.0221 60.9378 51.0449 57.9689 47.3724 57.9689C43.6998 57.9689 40.7227 60.9378 40.7227 64.6C40.7227 68.2623 43.6998 71.2312 47.3724 71.2312Z" fill="#C4C4C4"/>
<path d="M33.9939 92.1989C28.5145 92.1989 24.0591 87.7561 24.0591 82.292C24.0591 76.828 28.5145 72.3851 33.9939 72.3851C39.4733 72.3851 43.9285 76.828 43.9285 82.292C43.9285 87.7561 39.4733 92.1989 33.9939 92.1989ZM33.9939 74.7988C29.8445 74.7988 26.4797 78.1675 26.4797 82.292C26.4797 86.4298 29.8578 89.7852 33.9939 89.7852C38.1433 89.7852 41.5081 86.4166 41.5081 82.292C41.5214 78.1542 38.1433 74.7988 33.9939 74.7988Z" fill="#C4C4C4"/>
<path d="M35.3362 91.6029C39.0088 91.6029 41.986 88.6341 41.986 84.9718C41.986 81.3095 39.0088 78.3407 35.3362 78.3407C31.6637 78.3407 28.6865 81.3095 28.6865 84.9718C28.6865 88.6341 31.6637 91.6029 35.3362 91.6029Z" fill="#C4C4C4"/>
</svg>
