<svg width="16" height="16" viewBox="0 0 16 16" fill="none" xmlns="http://www.w3.org/2000/svg">
<g clip-path="url(#clip0_39_132)">
<path d="M12 0H4.00014C1.80039 0 0.000244141 1.80015 0.000244141 3.9999V12.0001C0.000244141 14.1993 1.80039 16 4.00014 16H12C14.1997 16 15.9999 14.1993 15.9999 12.0001V3.9999C15.9999 1.80015 14.1997 0 12 0ZM14.6664 12.0001C14.6664 13.4701 13.4708 14.6666 12 14.6666H4.00014C2.52998 14.6666 1.33361 13.4701 1.33361 12.0001V3.9999C1.33361 2.52954 2.52998 1.33337 4.00014 1.33337H12C13.4708 1.33337 14.6664 2.52954 14.6664 3.9999V12.0001Z" fill="white"/>
<path d="M12.3346 4.6656C12.8868 4.6656 13.3346 4.2179 13.3346 3.66563C13.3346 3.11335 12.8868 2.66565 12.3346 2.66565C11.7823 2.66565 11.3346 3.11335 11.3346 3.66563C11.3346 4.2179 11.7823 4.6656 12.3346 4.6656Z" fill="white"/>
<path d="M8.00003 4C5.79047 4 4.00012 5.79054 4.00012 7.9999C4.00012 10.2085 5.79047 12.0002 8.00003 12.0002C10.209 12.0002 11.9999 10.2085 11.9999 7.9999C11.9999 5.79054 10.209 4 8.00003 4ZM8.00003 10.6668C6.52744 10.6668 5.33349 9.47288 5.33349 7.9999C5.33349 6.52693 6.52744 5.33337 8.00003 5.33337C9.47259 5.33337 10.6666 6.52693 10.6666 7.9999C10.6666 9.47288 9.47259 10.6668 8.00003 10.6668Z" fill="white"/>
</g>
<defs>
<clipPath id="clip0_39_132">
<rect width="16" height="16" fill="white"/>
</clipPath>
</defs>
</svg>
