<svg width="180" height="71" viewBox="0 0 180 71" fill="none" xmlns="http://www.w3.org/2000/svg">
<path d="M69.787 25.6H75.397V26.1993H75.1076C74.1661 26.1993 73.6954 26.6057 73.6954 27.4185V30.2817C73.2039 30.346 72.3773 30.571 71.2084 30.959C70.0419 31.3448 69.1027 31.5399 68.3931 31.5399C66.5744 31.5399 65.0657 30.9338 63.867 29.7215C62.6683 28.5091 62.069 26.9937 62.069 25.1752C62.069 23.1891 62.6844 21.4969 63.9152 20.0986C65.1461 18.7003 66.742 18 68.7031 18C70.2118 18 71.5138 18.4202 72.6115 19.2582C72.7791 19.0126 72.9215 18.7049 73.0363 18.3306H73.5782L73.6954 22.7207H73.0363C72.8687 21.5474 72.4002 20.567 71.6332 19.7818C70.8663 18.9942 69.9087 18.6016 68.7605 18.6016C67.9086 18.6016 67.1806 18.7921 66.5744 19.1733C65.9682 19.5544 65.5066 20.0688 65.192 20.7208C64.8751 21.3729 64.6501 22.0457 64.5146 22.7414C64.3791 23.4371 64.3125 24.1856 64.3125 24.9847C64.3125 25.6689 64.3929 26.3393 64.5536 26.996C64.7143 27.6527 64.9601 28.2726 65.2884 28.8535C65.6168 29.4344 66.0646 29.9006 66.6341 30.2564C67.2013 30.61 67.8535 30.7891 68.5883 30.7891C69.1945 30.7891 69.8742 30.6307 70.6297 30.3161C71.3852 29.9993 71.7618 29.6227 71.7618 29.1842V27.4231C71.7618 26.9455 71.6401 26.6241 71.3944 26.4564C71.1487 26.2888 70.7675 26.2062 70.2531 26.2062H69.7893V25.6H69.787Z" fill="white"/>
<path d="M83.7166 26.8968H78.2031C78.2031 29.4248 79.0275 30.6876 80.6785 30.6876C81.6338 30.6876 82.4582 30.1986 83.154 29.2181L83.7143 29.5281C82.9152 30.7909 81.806 31.4247 80.3869 31.4247C79.1997 31.4247 78.2467 31.0343 77.5233 30.2537C76.8 29.473 76.4395 28.4834 76.4395 27.2848C76.4395 26.0863 76.7908 25.0645 77.4935 24.2196C78.1962 23.3746 79.14 22.9521 80.3272 22.9521C81.372 22.9521 82.1964 23.3425 82.8026 24.1231C83.4135 24.9015 83.7166 25.8268 83.7166 26.8968ZM81.9943 26.2195C81.9943 26.2057 81.9966 26.1781 82.0035 26.1322C82.0104 26.0863 82.0127 26.0518 82.0127 26.0266C82.0127 24.4538 81.4202 23.6662 80.233 23.6662C79.5763 23.6662 79.0826 23.9142 78.7542 24.4102C78.4258 24.9061 78.2467 25.51 78.2214 26.2195H81.9943Z" fill="white"/>
<path d="M93.5631 27.2251C93.5631 28.4627 93.1773 29.473 92.4035 30.2514C91.6296 31.032 90.6238 31.4224 89.3861 31.4224C88.1093 31.4224 87.0966 31.055 86.348 30.3202C85.5994 29.5855 85.2251 28.5798 85.2251 27.3032C85.2251 26.0013 85.6017 24.9497 86.3572 24.1507C87.1127 23.3517 88.1392 22.9521 89.4435 22.9521C90.7455 22.9521 91.7582 23.3379 92.4815 24.1117C93.2026 24.8831 93.5631 25.9233 93.5631 27.2251ZM91.8225 27.2642C91.8225 26.8784 91.8087 26.5317 91.7835 26.2286C91.7582 25.9256 91.6939 25.5972 91.5906 25.2413C91.4872 24.8877 91.3518 24.5915 91.1841 24.3505C91.0165 24.1117 90.78 23.9142 90.4768 23.7604C90.1737 23.6065 89.8155 23.5285 89.4045 23.5285C87.7786 23.5285 86.9657 24.812 86.9657 27.3767C86.9657 28.3318 87.1517 29.1492 87.526 29.8335C87.9003 30.5177 88.5181 30.8575 89.3838 30.8575C89.99 30.8575 90.486 30.6601 90.8741 30.2674C91.2599 29.8748 91.5148 29.4248 91.6388 28.9219C91.7605 28.4237 91.8225 27.8703 91.8225 27.2642Z" fill="white"/>
<path d="M97.49 25.1176V29.0645C97.49 29.6569 97.5796 30.0404 97.761 30.2149C97.9424 30.3894 98.3213 30.5271 98.9022 30.6305V31.2114H94.5874V30.6121C95.0765 30.5983 95.4164 30.4675 95.6024 30.2149C95.7884 29.9646 95.8825 29.5789 95.8825 29.0645V25.7375C95.8825 25.2347 95.7861 24.8512 95.5932 24.5872C95.4003 24.3232 95.065 24.1854 94.5874 24.1716V23.5907C95.6575 23.4369 96.5416 23.2555 97.2374 23.0488C97.405 23.3588 97.49 23.841 97.49 24.4999C98.1996 23.5586 98.9665 23.0879 99.7932 23.0879C100.103 23.0879 100.37 23.182 100.597 23.368C100.822 23.5563 100.934 23.7973 100.934 24.0935C100.934 24.2864 100.87 24.4655 100.742 24.6262C100.613 24.787 100.452 24.8742 100.257 24.888C100.064 24.888 99.8506 24.7663 99.6187 24.5206C99.3868 24.2749 99.1801 24.1532 98.9987 24.1532C98.7024 24.1532 98.4154 24.2474 98.1375 24.4334C97.862 24.617 97.6461 24.8467 97.49 25.1176Z" fill="white"/>
<path d="M107.821 24.2265C108.106 24.7041 108.246 25.2505 108.246 25.8705C108.246 26.658 107.989 27.3055 107.472 27.8152C106.955 28.325 106.299 28.6051 105.5 28.6579C103.848 28.7222 102.997 28.9931 102.946 29.4707C102.946 29.7279 103.192 29.8564 103.681 29.8564C104.326 29.8564 105.293 29.8955 106.583 29.9735C107.5 30.0516 108.214 30.2766 108.73 30.6509C109.247 31.0251 109.504 31.6428 109.504 32.5084C109.504 33.6564 109.075 34.5611 108.218 35.227C107.36 35.8905 106.345 36.2235 105.171 36.2235C104.604 36.2235 104.03 36.1385 103.449 35.9732C102.868 35.8056 102.347 35.5094 101.883 35.0823C101.419 34.6575 101.187 34.1478 101.187 33.5531C101.187 32.986 101.419 32.5084 101.883 32.1227C102.347 31.7346 102.87 31.5418 103.449 31.5418C103.513 31.5418 103.623 31.5532 103.777 31.5808C103.738 31.6198 103.656 31.691 103.527 31.7943C103.398 31.8977 103.307 31.9711 103.256 32.017C103.205 32.063 103.13 32.1341 103.033 32.2306C102.937 32.327 102.868 32.4074 102.831 32.4717C102.792 32.536 102.744 32.6209 102.687 32.7242C102.629 32.8276 102.59 32.9332 102.572 33.0434C102.553 33.1536 102.542 33.273 102.542 33.4016C102.542 34.072 102.827 34.5772 103.394 34.9193C103.961 35.2614 104.599 35.4313 105.309 35.4313C106.044 35.4313 106.714 35.2545 107.321 34.8986C107.927 34.545 108.23 34.0238 108.23 33.3419C108.23 32.8528 108.055 32.4809 107.709 32.2306C107.36 31.9803 106.921 31.8334 106.393 31.7943C106.303 31.7806 106.051 31.7645 105.637 31.7461C105.224 31.7277 104.896 31.7048 104.65 31.6795C104.404 31.6543 104.092 31.5992 103.711 31.5142C103.329 31.4293 103.033 31.3282 102.82 31.2042C102.606 31.0803 102.416 30.9011 102.248 30.6624C102.08 30.4236 101.998 30.1503 101.998 29.8404C101.998 29.4271 102.181 29.0919 102.549 28.8347C102.916 28.5775 103.325 28.4283 103.777 28.3893C103.222 28.2216 102.788 27.9186 102.471 27.48C102.154 27.0415 101.998 26.5317 101.998 25.9508C101.998 25.0485 102.292 24.3229 102.877 23.7741C103.463 23.2254 104.216 22.9521 105.13 22.9521C106.2 22.9521 107.013 23.2805 107.569 23.9395C108.097 23.3195 108.691 22.9912 109.348 22.9521C109.594 22.9521 109.812 23.0164 110.005 23.145C110.198 23.2736 110.294 23.455 110.294 23.6869C110.294 23.8935 110.232 24.068 110.111 24.2081C109.989 24.3505 109.83 24.4216 109.638 24.4216C109.484 24.4216 109.302 24.3275 109.096 24.1415C108.889 23.9555 108.71 23.8614 108.554 23.8614C108.338 23.8591 108.092 23.9808 107.821 24.2265ZM106.719 25.8705C106.719 24.2586 106.198 23.4527 105.153 23.4527C104.739 23.4527 104.409 23.6019 104.156 23.8981C103.904 24.1943 103.743 24.5181 103.672 24.8648C103.6 25.2138 103.566 25.5926 103.566 26.0059C103.566 26.5983 103.683 27.1172 103.915 27.5627C104.147 28.0081 104.535 28.2308 105.075 28.2308C105.642 28.2308 106.058 27.992 106.322 27.5144C106.586 27.0392 106.719 26.4904 106.719 25.8705Z" fill="white"/>
<path d="M113.199 23.0466V29.0623C113.199 29.5789 113.294 29.9624 113.48 30.2127C113.666 30.4652 114.005 30.5961 114.495 30.6099V31.2092H110.297V30.6099C110.786 30.5961 111.126 30.4652 111.312 30.2127C111.498 29.9624 111.592 29.5766 111.592 29.0623V25.7353C111.592 25.2325 111.496 24.849 111.303 24.585C111.11 24.3209 110.775 24.1832 110.297 24.1694V23.5885C111.071 23.4852 112.04 23.3061 113.199 23.0466ZM112.426 21.7126C112.155 21.7126 111.916 21.6185 111.709 21.4325C111.502 21.2465 111.399 21.0169 111.399 20.7459C111.399 20.475 111.502 20.2454 111.709 20.0594C111.916 19.8734 112.155 19.7793 112.426 19.7793C112.683 19.7793 112.91 19.8757 113.103 20.0686C113.296 20.2615 113.392 20.4888 113.392 20.7459C113.392 21.0031 113.296 21.2304 113.103 21.4233C112.91 21.6162 112.683 21.7126 112.426 21.7126Z" fill="white"/>
<path d="M123.182 29.5078H123.763C123.441 30.7844 122.796 31.4227 121.829 31.4227C121.391 31.4227 121.032 31.3033 120.755 31.0645C120.477 30.8257 120.307 30.4882 120.242 30.0497C119.893 30.4492 119.466 30.7752 118.956 31.0255C118.447 31.2781 117.935 31.402 117.418 31.402C116.851 31.402 116.394 31.2184 116.045 30.851C115.696 30.4836 115.523 30.0083 115.523 29.4297C115.523 28.9131 115.622 28.4814 115.824 28.1347C116.024 27.7857 116.309 27.5217 116.676 27.3426C117.044 27.1612 117.411 27.0211 117.778 26.9178C118.146 26.8145 118.575 26.7089 119.064 26.5987C119.554 26.4885 119.948 26.3691 120.245 26.2405V25.5838C120.245 24.8996 120.151 24.3921 119.965 24.0546C119.779 23.7194 119.368 23.5518 118.736 23.5518C118.415 23.5518 118.16 23.616 117.971 23.7446C117.783 23.8732 117.654 24.0339 117.583 24.2291C117.512 24.422 117.445 24.6126 117.381 24.8008C117.317 24.9891 117.216 25.1452 117.08 25.2738C116.945 25.4024 116.754 25.4667 116.509 25.4667C116.302 25.4667 116.109 25.4093 115.928 25.2922C115.746 25.1751 115.657 25.0213 115.657 24.8284C115.657 24.4151 115.85 24.0569 116.238 23.7538C116.623 23.4507 117.044 23.2418 117.496 23.1247C117.948 23.0076 118.373 22.9502 118.773 22.9502C120.823 22.9502 121.848 23.7699 121.848 25.407V29.6616C121.848 30.2035 122.015 30.4859 122.35 30.5135C122.725 30.5135 122.989 30.2242 123.143 29.6432C123.168 29.5927 123.182 29.5468 123.182 29.5078ZM120.24 26.8007C120.059 26.8788 119.76 26.9821 119.34 27.1107C118.92 27.2393 118.575 27.3564 118.304 27.4597C118.033 27.563 117.776 27.7398 117.53 27.9924C117.285 28.2449 117.149 28.5434 117.124 28.8924C117.124 29.292 117.246 29.6272 117.491 29.8981C117.737 30.1691 118.065 30.3045 118.479 30.3045C119.032 30.3045 119.62 30.0405 120.24 29.5124V26.8007Z" fill="white"/>
<path d="M126.392 23.0466C126.559 23.3819 126.644 23.7745 126.644 24.2268C127.586 23.375 128.578 22.9502 129.622 22.9502C131.195 22.9502 131.983 23.8273 131.983 25.5815V29.0623C131.983 29.579 132.073 29.9624 132.254 30.2127C132.436 30.4653 132.771 30.5961 133.26 30.6099V31.2092H129.081V30.6099C129.57 30.5961 129.905 30.4653 130.086 30.2127C130.268 29.9624 130.357 29.5767 130.357 29.0623V25.8134C130.357 24.562 129.802 23.9375 128.692 23.9375C128.047 23.9375 127.363 24.2544 126.642 24.8858V29.0646C126.642 29.5813 126.736 29.9647 126.922 30.215C127.108 30.4675 127.448 30.5984 127.937 30.6122V31.2115H123.739V30.6122C124.228 30.5984 124.568 30.4675 124.754 30.215C124.94 29.9647 125.034 29.579 125.034 29.0646V25.7376C125.034 25.2348 124.938 24.8513 124.745 24.5873C124.552 24.3232 124.217 24.1855 123.739 24.1717V23.5908C124.812 23.4347 125.696 23.2533 126.392 23.0466Z" fill="white"/>
<path d="M148.698 18.3076L151.252 25.7354C151.677 26.8835 151.955 27.8042 152.083 28.5022C152.122 28.3208 152.269 27.7422 152.529 26.7618L154.386 20.4568C154.49 20.1215 154.54 19.8644 154.54 19.683C154.54 19.5934 154.531 19.5131 154.51 19.4419C154.492 19.3707 154.455 19.3087 154.405 19.2582C154.352 19.2077 154.302 19.1618 154.251 19.1227C154.2 19.0837 154.129 19.0515 154.037 19.0263C153.948 19.001 153.877 18.9804 153.824 18.9689C153.771 18.9574 153.688 18.9459 153.571 18.939C153.454 18.9321 153.371 18.9253 153.321 18.9207C153.268 18.9138 153.183 18.9115 153.059 18.9115C152.937 18.9115 152.862 18.9115 152.836 18.9115V18.3122H157.266V18.9115C156.71 18.9253 156.272 19.0148 155.95 19.1824C155.629 19.35 155.395 19.6784 155.255 20.1697L151.945 31.4274H151.25L147.844 21.6392L144.827 31.4274H144.035L140.611 20.1697C140.354 19.3317 139.759 18.9115 138.831 18.9115V18.3122H144.035V18.9115H143.745C142.946 18.9115 142.547 19.1319 142.547 19.5682C142.547 19.6462 142.579 19.7932 142.643 20.0136L144.519 26.6286C144.597 26.849 144.744 27.4736 144.965 28.5045L148.099 18.3099H148.698V18.3076Z" fill="white"/>
<path d="M160.364 23.0466V29.0623C160.364 29.5789 160.458 29.9624 160.644 30.2127C160.83 30.4652 161.17 30.5961 161.659 30.6099V31.2092H157.461V30.6099C157.951 30.5961 158.29 30.4652 158.476 30.2127C158.662 29.9624 158.757 29.5766 158.757 29.0623V25.7353C158.757 25.2325 158.66 24.849 158.467 24.585C158.274 24.3209 157.939 24.1832 157.461 24.1694V23.5885C158.235 23.4852 159.204 23.3061 160.364 23.0466ZM159.59 21.7126C159.319 21.7126 159.08 21.6185 158.874 21.4325C158.667 21.2465 158.564 21.0169 158.564 20.7459C158.564 20.475 158.667 20.2454 158.874 20.0594C159.08 19.8734 159.319 19.7793 159.59 19.7793C159.847 19.7793 160.075 19.8757 160.268 20.0686C160.46 20.2615 160.557 20.4888 160.557 20.7459C160.557 21.0031 160.46 21.2304 160.268 21.4233C160.075 21.6162 159.847 21.7126 159.59 21.7126Z" fill="white"/>
<path d="M164.814 23.0466C164.982 23.3819 165.067 23.7745 165.067 24.2268C166.008 23.375 167.001 22.9502 168.045 22.9502C169.618 22.9502 170.406 23.8273 170.406 25.5815V29.0623C170.406 29.579 170.496 29.9624 170.677 30.2127C170.858 30.4653 171.194 30.5961 171.683 30.6099V31.2092H167.503V30.6099C167.993 30.5961 168.328 30.4653 168.509 30.2127C168.691 29.9624 168.78 29.5767 168.78 29.0623V25.8134C168.78 24.562 168.224 23.9375 167.115 23.9375C166.47 23.9375 165.786 24.2544 165.065 24.8858V29.0646C165.065 29.5813 165.159 29.9647 165.345 30.215C165.531 30.4675 165.871 30.5984 166.36 30.6122V31.2115H162.162V30.6122C162.651 30.5984 162.991 30.4675 163.177 30.215C163.363 29.9647 163.457 29.579 163.457 29.0646V25.7376C163.457 25.2348 163.361 24.8513 163.168 24.5873C162.975 24.3232 162.64 24.1855 162.162 24.1717V23.5908C163.235 23.4347 164.116 23.2533 164.814 23.0466Z" fill="white"/>
<path d="M180 26.8968H174.487C174.487 29.4248 175.311 30.6876 176.962 30.6876C177.917 30.6876 178.742 30.1986 179.438 29.2181L179.998 29.5281C179.199 30.7909 178.09 31.4247 176.671 31.4247C175.483 31.4247 174.53 31.0343 173.807 30.2537C173.084 29.473 172.723 28.4834 172.723 27.2848C172.723 26.0863 173.074 25.0645 173.777 24.2196C174.48 23.3746 175.424 22.9521 176.611 22.9521C177.656 22.9521 178.48 23.3425 179.086 24.1231C179.697 24.9015 180 25.8268 180 26.8968ZM178.278 26.2195C178.278 26.2057 178.28 26.1781 178.287 26.1322C178.294 26.0863 178.296 26.0518 178.296 26.0266C178.296 24.4538 177.704 23.6662 176.517 23.6662C175.86 23.6662 175.366 23.9142 175.038 24.4102C174.709 24.9061 174.53 25.51 174.505 26.2195H178.278Z" fill="white"/>
<path d="M71.5348 40.7295L71.8838 43.882H71.2845C71.0916 43.083 70.7977 42.4676 70.405 42.0337C70.0123 41.602 69.4405 41.3862 68.6919 41.3862H65.8858V46.4536H67.1051C67.6976 46.4536 68.1408 46.3044 68.4301 46.0082C68.7195 45.712 68.8779 45.2596 68.9032 44.6535H69.5025V49.0252H68.9032C68.8527 48.6647 68.7998 48.3869 68.7493 48.194C68.6965 48.0012 68.6115 47.8106 68.4875 47.6223C68.3658 47.4363 68.1936 47.3055 67.9755 47.2343C67.755 47.1631 67.4657 47.1287 67.1051 47.1287H65.8858V51.2685C65.8858 51.9137 66.0557 52.3591 66.3979 52.6025C66.74 52.8482 67.2452 52.9699 67.9158 52.9699C68.4049 52.9699 68.7952 52.9561 69.0869 52.9308C69.3762 52.9056 69.7 52.8436 70.0537 52.7471C70.4073 52.6507 70.7173 52.49 70.9814 52.2627C71.2454 52.0377 71.4866 51.7438 71.707 51.3833C72.0813 50.7266 72.2811 50.1457 72.3064 49.6429H72.8667L72.6164 53.6265H62.0142V53.0273C62.4137 53.0135 62.7008 52.9951 62.8753 52.9699C63.0498 52.9446 63.2358 52.8826 63.4356 52.7862C63.6354 52.6897 63.7709 52.5382 63.842 52.3316C63.9132 52.1249 63.9477 51.8425 63.9477 51.4797V42.8763C63.9477 42.5273 63.9109 42.2472 63.842 42.0337C63.7709 41.8201 63.6354 41.6663 63.4356 41.5698C63.2358 41.4734 63.0452 41.4114 62.8661 41.3862C62.6847 41.3609 62.4022 41.3402 62.0142 41.3288V40.7295H71.5348Z" fill="white"/>
<path d="M78.6926 45.6043V48.254H78.2471C78.1185 47.6616 77.8705 47.1473 77.5031 46.7156C77.1357 46.284 76.6672 46.0681 76.1 46.0681C75.7785 46.0681 75.5099 46.1715 75.2963 46.3781C75.0828 46.5847 74.9771 46.8488 74.9771 47.1702C74.9771 47.4802 75.1195 47.758 75.4019 48.0014C75.6844 48.2471 76.0266 48.456 76.4261 48.6305C76.8257 48.805 77.2298 48.9979 77.6363 49.2115C78.0427 49.425 78.3872 49.7143 78.6719 50.0817C78.9544 50.449 79.0968 50.8853 79.0968 51.3881C79.0968 52.1229 78.8763 52.7176 78.44 53.1676C78.0014 53.6199 77.4204 53.8449 76.6994 53.8449C75.8727 53.8449 75.1379 53.5556 74.4949 52.9747L74.1665 53.6314H73.7026V50.8646H74.1665C74.2446 51.4961 74.4949 52.0287 74.922 52.4604C75.3468 52.8921 75.8704 53.1079 76.4881 53.1079C76.8624 53.1079 77.1839 52.9977 77.4549 52.7796C77.7259 52.5614 77.8613 52.2698 77.8613 51.9093C77.8613 51.5603 77.7189 51.255 77.4365 50.9909C77.1517 50.7269 76.8119 50.5019 76.4123 50.3136C76.0128 50.1276 75.6132 49.9278 75.2136 49.7143C74.8141 49.5008 74.4719 49.2183 74.1895 48.8625C73.9047 48.5089 73.7646 48.0979 73.7646 47.6341C73.7646 46.9498 73.9621 46.4034 74.3548 45.9901C74.7475 45.5768 75.2802 45.3701 75.9508 45.3701C76.6603 45.3701 77.3056 45.6801 77.8843 46.2977L78.2517 45.602H78.6926V45.6043Z" fill="white"/>
<path d="M84.691 45.5445V46.1644H82.5439V51.1561C82.5439 51.5556 82.6174 51.9161 82.7667 52.2399C82.9137 52.5613 83.1571 52.7243 83.4923 52.7243C83.6737 52.7243 83.8598 52.6692 84.0527 52.559C84.2455 52.4488 84.3741 52.3661 84.4384 52.3087C84.5027 52.2513 84.6451 52.1113 84.8633 51.8931L85.249 52.2215C84.6175 53.2157 83.8299 53.7116 82.8884 53.7116C81.5864 53.7116 80.9342 52.8598 80.9342 51.1584V46.1667H79.9858V45.742C80.6173 45.6386 81.0927 45.2804 81.4073 44.6674C81.7242 44.0543 81.8803 43.3931 81.8803 42.6836H82.5371V45.5468H84.691V45.5445Z" fill="white"/>
<path d="M93.1642 51.9277H93.7451C93.4237 53.2043 92.7784 53.8426 91.8116 53.8426C91.373 53.8426 91.0148 53.7232 90.7369 53.4845C90.4591 53.2457 90.2892 52.9081 90.2249 52.4696C89.8758 52.8691 89.4487 53.1951 88.9389 53.4454C88.4291 53.698 87.917 53.822 87.4003 53.822C86.8331 53.822 86.3762 53.6383 86.0271 53.2709C85.6781 52.9035 85.5059 52.4283 85.5059 51.8496C85.5059 51.333 85.6046 50.9014 85.8067 50.5547C86.0065 50.2057 86.2912 49.9416 86.6586 49.7625C87.026 49.5811 87.3935 49.4411 87.7609 49.3377C88.1283 49.2344 88.5577 49.1288 89.0468 49.0186C89.536 48.9084 89.9309 48.789 90.2272 48.6604V48.0037C90.2272 47.3195 90.133 46.8121 89.947 46.4745C89.761 46.1393 89.3499 45.9717 88.7184 45.9717C88.397 45.9717 88.1421 46.036 87.9538 46.1646C87.7655 46.2931 87.6369 46.4539 87.5657 46.649C87.4945 46.8419 87.4279 47.0325 87.3636 47.2208C87.2993 47.409 87.1983 47.5652 87.0628 47.6938C86.9273 47.8223 86.7367 47.8866 86.491 47.8866C86.2843 47.8866 86.0914 47.8292 85.91 47.7121C85.7286 47.595 85.6391 47.4412 85.6391 47.2483C85.6391 46.835 85.8319 46.4768 86.22 46.1737C86.6058 45.8707 87.0261 45.6617 87.4784 45.5446C87.9308 45.4275 88.3556 45.3701 88.7552 45.3701C90.8058 45.3701 91.83 46.1898 91.83 47.8269V52.0816C91.83 52.6234 91.9976 52.9058 92.3329 52.9334C92.7072 52.9334 92.9713 52.6441 93.1251 52.0632C93.1504 52.0127 93.1642 51.9667 93.1642 51.9277ZM90.2226 49.2206C90.0411 49.2987 89.7426 49.402 89.3224 49.5306C88.9022 49.6592 88.5577 49.7763 88.2867 49.8796C88.0158 49.9829 87.7586 50.1597 87.5129 50.4123C87.2672 50.6649 87.1317 50.9634 87.1064 51.3124C87.1064 51.7119 87.2281 52.0471 87.4738 52.318C87.7196 52.589 88.0479 52.7245 88.4613 52.7245C89.0147 52.7245 89.6025 52.4604 90.2226 51.9323V49.2206Z" fill="white"/>
<path d="M98.4254 45.5445V46.1644H96.2783V51.1561C96.2783 51.5556 96.3518 51.9161 96.5011 52.2399C96.648 52.5613 96.8915 52.7243 97.2267 52.7243C97.4081 52.7243 97.5941 52.6692 97.787 52.559C97.9799 52.4488 98.1085 52.3661 98.1728 52.3087C98.2371 52.2513 98.3795 52.1113 98.5976 51.8931L98.9834 52.2215C98.3519 53.2157 97.5643 53.7116 96.6228 53.7116C95.3208 53.7116 94.6686 52.8598 94.6686 51.1584V46.1667H93.7202V45.742C94.3517 45.6386 94.8271 45.2804 95.1417 44.6674C95.4586 44.0543 95.6147 43.3931 95.6147 42.6836H96.2714V45.5468H98.4254V45.5445Z" fill="white"/>
<path d="M106.513 49.3167H100.999C100.999 51.8447 101.824 53.1075 103.475 53.1075C104.43 53.1075 105.255 52.6185 105.95 51.6381L106.511 51.948C105.712 53.2109 104.602 53.8446 103.183 53.8446C101.996 53.8446 101.043 53.4543 100.32 52.6736C99.5964 51.8929 99.2358 50.9033 99.2358 49.7048C99.2358 48.5062 99.5872 47.4845 100.29 46.6395C100.993 45.7946 101.936 45.3721 103.124 45.3721C104.168 45.3721 104.993 45.7624 105.599 46.5431C106.21 47.3214 106.513 48.2468 106.513 49.3167ZM104.791 48.6394C104.791 48.6256 104.793 48.5981 104.8 48.5521C104.807 48.5062 104.809 48.4718 104.809 48.4465C104.809 46.8737 104.217 46.0862 103.029 46.0862C102.373 46.0862 101.879 46.3341 101.551 46.8301C101.222 47.326 101.043 47.9299 101.018 48.6394H104.791Z" fill="white"/>
<path d="M112.897 45.6043V48.254H112.451C112.323 47.6616 112.075 47.1473 111.707 46.7156C111.34 46.284 110.871 46.0681 110.304 46.0681C109.983 46.0681 109.714 46.1715 109.5 46.3781C109.287 46.5847 109.181 46.8488 109.181 47.1702C109.181 47.4802 109.324 47.758 109.606 48.0014C109.888 48.2471 110.231 48.456 110.63 48.6305C111.03 48.805 111.434 48.9979 111.84 49.2115C112.247 49.425 112.591 49.7143 112.876 50.0817C113.158 50.449 113.301 50.8853 113.301 51.3881C113.301 52.1229 113.08 52.7176 112.644 53.1676C112.205 53.6199 111.625 53.8449 110.903 53.8449C110.077 53.8449 109.342 53.5556 108.699 52.9747L108.371 53.6314H107.907V50.8646H108.371C108.449 51.4961 108.699 52.0287 109.126 52.4604C109.551 52.8921 110.074 53.1079 110.692 53.1079C111.067 53.1079 111.388 52.9977 111.659 52.7796C111.93 52.5614 112.065 52.2698 112.065 51.9093C112.065 51.5603 111.923 51.255 111.641 50.9909C111.356 50.7269 111.016 50.5019 110.616 50.3136C110.217 50.1276 109.817 49.9278 109.418 49.7143C109.018 49.5008 108.676 49.2183 108.394 48.8625C108.109 48.5089 107.969 48.0979 107.969 47.6341C107.969 46.9498 108.166 46.4034 108.559 45.9901C108.952 45.5768 109.484 45.3701 110.155 45.3701C110.864 45.3701 111.51 45.6801 112.088 46.2977L112.456 45.602H112.897V45.6043Z" fill="white"/>
<path d="M7.64697 1.78125V39.0062C7.64697 44.1937 11.3433 48.6913 16.4346 49.7022C19.7798 50.3693 22.8934 51.6988 25.688 53.6542L27.3606 54.8255L29.0332 53.6542C30.4305 52.6753 31.9081 51.8547 33.4522 51.1945C34.9987 50.5343 36.614 50.0369 38.2889 49.7022C43.3802 48.6913 47.0742 44.1915 47.0742 39.0062V1.78125H7.64697ZM45.966 39.0062C45.966 43.6665 42.6437 47.7079 38.0709 48.6202C34.5719 49.3148 31.3184 50.7039 28.3976 52.751L27.9135 53.0902L27.3606 53.4776L26.8076 53.0902L26.3235 52.751C24.784 51.6736 23.1526 50.7796 21.4456 50.0735C20.693 49.7595 19.9221 49.4844 19.142 49.2483C18.3275 48.9984 17.4969 48.7921 16.6525 48.6225C16.157 48.5239 15.6728 48.3887 15.2094 48.2191C14.8331 48.0815 14.4683 47.9234 14.1172 47.7446C13.0503 47.199 12.1004 46.4654 11.3088 45.5921C10.8064 45.0396 10.3659 44.4276 10.001 43.7697C9.3609 42.6258 8.94562 41.349 8.80796 40.0011C8.77354 39.6733 8.75746 39.3432 8.75746 39.0085V2.88615H45.9683V39.0062H45.966Z" fill="white"/>
<path d="M27.9141 2.88574V24.8622H45.9688V2.88574H27.9141ZM39.4045 5.59985C39.4206 5.62965 39.4343 5.66174 39.4435 5.69383C38.5762 5.43709 37.7066 5.31331 37.7066 5.31331C37.7066 5.31331 39.0443 4.96717 39.4045 5.59985ZM40.6389 18.2603C40.6389 18.2603 40.9463 20.3486 39.4733 21.1028C39.4733 21.1028 39.2347 18.9113 38.5143 18.705C38.5143 18.705 38.5051 21.1028 36.9288 22.4392C36.9288 22.4392 34.6252 20.383 34.7606 18.3612C34.7606 18.3612 33.836 19.5601 34.008 20.5183C34.008 20.5183 32.5901 19.6609 32.7163 17.7102C32.7163 17.7102 30.8555 18.0884 30.3737 16.9583C30.4448 17.1233 31.6976 16.5663 31.826 16.4792C32.2803 16.1651 32.5396 15.7755 32.6406 15.2849C32.0922 15.3537 30.6628 15.4224 30.2291 14.4069C30.3095 14.5926 31.7182 13.9691 31.8605 13.8705C32.3446 13.5381 32.6291 13.1278 32.753 12.6166C32.2712 12.8252 31.4062 13.2218 31.007 12.7106C31.007 12.7106 32.7737 11.2046 32.5259 9.86815C32.5259 9.86815 31.6264 10.4848 30.7339 9.90024C30.7339 9.90024 33.5446 7.84632 33.1339 7.29846C33.1339 7.29846 30.9404 6.57867 30.7339 5.37979C30.7339 5.37979 31.9454 5.89327 33.1155 6.03081C33.0696 5.70759 32.9733 4.6279 33.7143 4.31385C33.5859 4.36887 34.0172 5.33853 34.0837 5.4371C34.2421 5.66862 37.4221 8.72428 37.6378 8.83202C38.0072 8.7197 38.3445 8.60966 38.6473 8.50421L37.9498 10.6223C37.9498 10.6223 37.6034 12.0711 39.5376 12.2522C39.6798 12.2636 39.7991 12.3714 39.8267 12.5112C40.0446 13.5427 40.0767 14.8127 40.7605 15.6998C41.3433 16.454 42.2198 16.4998 43.0457 16.172C42.8507 17.419 42.1234 18.7624 40.6389 18.2603ZM43.4312 9.28131C43.4312 9.28131 43.0044 8.15579 41.9031 8.39419C41.2171 8.54548 40.2489 9.08876 39.7808 9.37072C39.533 9.51972 39.3517 9.76041 39.2921 10.0424C39.003 11.459 42.2106 11.0693 42.2106 11.0693C40.8867 12.4562 39.4205 11.89 38.668 11.4315C38.3628 11.2458 38.2252 10.8814 38.3307 10.5421L39.0236 8.36438C41.8871 7.28012 41.396 6.49385 40.2764 5.99183C43.9451 6.07665 43.4312 9.28131 43.4312 9.28131Z" fill="#515151"/>
<path d="M27.9141 25.9681V53.0885L28.3982 52.7493C31.319 50.7045 34.5725 49.3154 38.0714 48.6185C42.6465 47.7062 45.9665 43.6648 45.9665 39.0045V25.9658H27.9141V25.9681Z" fill="#515151"/>
<path d="M26.3237 52.7514L26.8078 53.0906V44.7168L21.4458 50.074C23.1528 50.7777 24.7842 51.674 26.3237 52.7514Z" fill="#515151"/>
<path d="M16.6504 48.6207C17.4924 48.7903 18.3253 48.9989 19.1398 49.2465L26.8077 41.5856V36.625L15.2095 48.215C15.6706 48.3869 16.1548 48.5221 16.6504 48.6207Z" fill="#515151"/>
<path d="M14.1153 47.7426L26.8058 35.0638V30.1055L11.3047 45.5924C12.0986 46.4635 13.0484 47.1947 14.1153 47.7426Z" fill="#515151"/>
<path d="M9.99889 43.7675L26.8078 26.9739V22.0156L8.80811 39.9989C8.94348 41.3468 9.35646 42.6236 9.99889 43.7675Z" fill="#515151"/>
<path d="M8.75537 38.4884L26.8055 20.4524V15.4941L8.75537 33.5278V38.4884Z" fill="#515151"/>
<path d="M8.75537 25.3689V30.3982L26.8055 12.3645V7.40625L8.78979 25.4055L8.75537 25.3689Z" fill="#515151"/>
<path d="M8.75537 18.9159V23.8765L26.8055 5.84054V2.88574H24.8002L8.75537 18.9159Z" fill="#515151"/>
<path d="M16.7032 2.88574L8.78979 10.7942L8.75537 10.7599V15.7892L21.6683 2.88574H16.7032Z" fill="#515151"/>
<path d="M8.75537 2.88574V9.26526L15.1407 2.88574H8.75537Z" fill="#515151"/>
<path d="M27.3609 56.7991L24.2267 54.6053C21.9047 52.9801 19.3189 51.8775 16.5381 51.325C10.4671 50.1239 6.10541 44.785 6.10541 38.6027V0H24.1854V0.442416H6.54821V38.605C6.54821 44.5627 10.7929 49.7319 16.6413 50.8964C19.4749 51.4603 22.1135 52.5858 24.4814 54.2432L27.3609 56.2581L30.2403 54.2432C32.6082 52.5858 35.2445 51.4603 38.0804 50.8964C43.9288 49.7319 48.1735 44.5627 48.1735 38.605V0.442416H23.5521V0H48.6163V38.605C48.6163 44.7736 44.2202 50.1262 38.1652 51.3296C35.3913 51.8821 32.8101 52.9847 30.4927 54.6053L27.3609 56.7991Z" fill="white"/>
<path d="M27.9116 2.68945H26.8057V53.5423H27.9116V2.68945Z" fill="white"/>
<path d="M46.2988 24.8623H27.877V25.9677H46.2988V24.8623Z" fill="white"/>
<path d="M16.8661 2.72406L16.7032 2.88682L8.78973 10.7953L8.75531 10.7609L8.00732 10.0136L16.086 1.94238L16.8661 2.72406Z" fill="white"/>
<path d="M25.0985 2.58748L8.49158 19.1793L8.1084 16.4354L8.75541 15.789L21.6684 2.88549L22.281 2.27344L25.0985 2.58748Z" fill="white"/>
<path d="M27.7508 6.46269L26.8055 7.40712L8.78973 25.4064L8.00732 24.6247L8.75531 23.8774L26.8055 5.84146L26.9684 5.67871L27.7508 6.46269Z" fill="white"/>
<path d="M27.4802 14.8204L26.8057 15.4943L8.39991 33.8833L7.92725 31.2265L27.1499 12.0215L27.4802 14.8204Z" fill="white"/>
<path d="M27.7508 21.073L26.8055 22.0175L8.8058 39.9984L8.78973 40.0145L8.00732 39.2351L8.75531 38.4878L26.8055 20.4518L26.9684 20.2891L27.7508 21.073Z" fill="white"/>
<path d="M27.5857 29.3258L11.3068 45.5899L11.1462 45.7503L9.5791 44.1869L9.99897 43.7675L26.8056 26.9762L27.4572 26.3252L27.5857 29.3258Z" fill="white"/>
<path d="M27.7512 35.6821L26.8059 36.6265L15.2076 48.2165L14.6226 48.801L13.8379 48.0193L14.1155 47.742L26.8059 35.0608L26.9688 34.9004L27.7512 35.6821Z" fill="white"/>
<path d="M27.5857 43.9341L20.8309 50.6827L18.9082 49.4769L27.0557 41.3369L27.5857 43.9341Z" fill="white"/>
<path d="M34.7074 65.7504C33.0624 65.7504 31.4563 65.175 30.1852 64.132L29.7928 63.8088L29.825 64.3154C29.9787 66.7934 29.0678 69.2141 27.3194 70.9609L27.2804 70.9998L27.2414 70.9609C25.5275 69.2485 24.6143 66.8714 24.7313 64.4392L24.7543 63.9601L24.3734 64.2535C23.1115 65.2323 21.6041 65.7504 20.014 65.7504L20.0049 65.7412C20.0049 63.5567 20.9915 61.5234 22.7146 60.1617L23.1023 59.8546L22.6159 59.7697C21.5972 59.5932 20.6725 59.1187 19.936 58.4012C20.8928 57.466 22.1524 56.9525 23.4924 56.9525C23.5038 56.9525 23.5176 56.9525 23.5291 56.9525C25.3577 56.9662 26.8376 58.4539 26.9156 60.2809L26.9294 60.611C26.4476 60.0311 25.8372 59.5543 25.1856 59.1875C24.0384 58.5479 22.7559 58.1995 21.4779 58.1697C23.6713 58.4975 26.1447 59.8202 26.8284 62.0116C25.7707 61.7847 24.6648 61.9979 23.6897 62.4128C22.5402 62.9079 21.5329 63.6644 20.7528 64.5951C21.9872 63.4604 23.8228 62.5114 25.5482 62.6008C26.381 62.6443 27.0441 63.3068 27.0808 64.1389L27.2919 69.0834L27.503 64.1389C27.5374 63.3091 28.2005 62.6466 29.0311 62.6008C30.7519 62.5045 32.5713 63.4764 33.7897 64.634C32.4084 62.9492 30.0727 61.5532 27.8288 62.0071C28.5378 59.7927 31.197 58.5961 33.4019 58.3737C31.3553 58.3439 28.9668 59.0821 27.6476 60.7325L27.6659 60.2764C27.737 58.5961 28.999 57.1634 30.6716 56.98C30.8574 56.9594 31.0433 56.9502 31.2314 56.9502C32.5714 56.9502 33.831 57.4637 34.7878 58.3989C34.0536 59.1187 33.1266 59.5909 32.1079 59.7675L31.6215 59.8523L32.0092 60.1594C33.7301 61.5211 34.7189 63.5544 34.7189 65.7389L34.7074 65.7504Z" fill="white"/>
<path d="M6.67674 54.4997C5.92876 53.7524 5.4607 52.7621 5.35745 51.7123L5.32533 51.3868L5.10964 51.632C4.05421 52.8286 2.53763 53.514 0.949891 53.514H0.913172V53.4773C0.913172 51.9232 1.57854 50.4263 2.73952 49.3741L2.96896 49.1655L2.66151 49.1265C1.64279 48.9982 0.72274 48.5489 0 47.8268V47.8176C0.993481 46.825 2.36782 46.3505 3.76741 46.511L4.08174 46.5477L3.89821 46.2886C3.51504 45.7454 3.31082 45.1104 3.30393 44.4502C4.16434 44.4594 4.96969 44.7986 5.57771 45.4061C5.58229 45.4107 5.58919 45.4176 5.59378 45.4221C6.41977 46.2588 6.41518 47.6067 5.61902 48.4709L5.47447 48.6268C5.52036 48.1431 5.45841 47.6503 5.32992 47.1872C5.09818 46.3757 4.67599 45.6353 4.10698 45.0416C4.95362 46.1855 5.47677 47.9093 4.79074 49.2159C4.41445 48.6337 3.81331 48.2279 3.18235 47.9735C2.43437 47.6778 1.63362 47.5632 0.855812 47.6319C1.93189 47.6778 3.1984 48.0789 3.94179 48.9019C4.29972 49.2985 4.29971 49.9013 3.93949 50.2956L1.78503 52.6384L4.12995 50.4882C4.52229 50.1283 5.12571 50.1283 5.52264 50.4836C6.34863 51.2217 6.7318 52.4894 6.75934 53.569C6.897 52.1776 6.47024 50.4813 5.24503 49.6698C6.57349 48.9867 8.32642 49.6492 9.43004 50.5501C8.51227 49.6079 7.09201 48.8583 5.7429 49.0096L5.95859 48.8102C6.75475 48.0789 7.97996 48.001 8.82431 48.6772C8.91838 48.7529 9.00787 48.8331 9.09276 48.9179C9.70078 49.5254 10.0403 50.3323 10.0495 51.1896C9.38873 51.1827 8.75317 50.9787 8.20939 50.5959L7.95012 50.4125L7.98684 50.7266C8.14974 52.1272 7.67252 53.5003 6.67904 54.4905L6.67674 54.4997Z" fill="white"/>
<path d="M48.0336 54.4993C47.0401 53.5068 46.5652 52.1337 46.7258 50.7354L46.7625 50.4213L46.5032 50.6047C45.9594 50.9875 45.3239 51.1915 44.6631 51.1984C44.6723 50.3388 45.0118 49.5342 45.6199 48.9267C45.7048 48.8419 45.7943 48.7617 45.8883 48.686C46.7327 48.0098 47.9556 48.0877 48.754 48.819L48.9697 49.0184C47.6183 48.8671 46.1981 49.6167 45.2826 50.5589C46.3862 49.658 48.1368 48.9955 49.4676 49.6786C48.2424 50.4924 47.8156 52.1864 47.9533 53.5778C47.9808 52.4981 48.3663 51.2305 49.19 50.4924C49.5869 50.1371 50.1903 50.1371 50.5827 50.497L52.9276 52.6472L50.7731 50.3044C50.4106 49.9101 50.4106 49.3072 50.7708 48.9107C51.5142 48.0877 52.7807 47.6843 53.8568 47.6407C53.079 47.5697 52.276 47.6843 51.5303 47.9823C50.8993 48.2367 50.2982 48.6425 49.9219 49.2247C49.2336 47.9181 49.7567 46.1943 50.6056 45.0504C50.0389 45.6418 49.6144 46.3845 49.3827 47.196C49.2542 47.6591 49.1923 48.1519 49.2382 48.6356L49.0936 48.4797C48.2975 47.6155 48.2929 46.2676 49.1188 45.4309C49.1234 45.4263 49.1303 45.4195 49.1349 45.4149C49.7429 44.8074 50.5506 44.4682 51.4087 44.459C51.4018 45.1192 51.1976 45.7541 50.8144 46.2974L50.6309 46.5565L50.9452 46.5198C52.3471 46.357 53.7191 46.8338 54.7126 47.8264V47.8356C53.9899 48.5577 53.0698 49.0069 52.0511 49.1353L51.7436 49.1743L51.9731 49.3829C53.1341 50.4351 53.7995 51.932 53.7995 53.4861V53.5228H53.7627C52.175 53.5228 50.6607 52.8374 49.603 51.6408L49.3873 51.3955L49.3552 51.7211C49.2519 52.7709 48.7839 53.7612 48.0359 54.5085L48.0336 54.4993Z" fill="white"/>
<path d="M16.7102 55.7401H11.7199C10.5704 55.7401 9.63428 54.8048 9.63428 53.6564C9.63428 52.7142 10.4029 51.9463 11.3459 51.9463C12.126 51.9463 12.7593 52.5813 12.7593 53.3584C12.7593 54.0048 12.2316 54.532 11.5845 54.532C11.0408 54.532 10.6002 54.0896 10.6002 53.5486C10.6002 53.0902 10.9742 52.7165 11.4331 52.7165C11.5547 52.7165 11.6533 52.8151 11.6533 52.9366C11.6533 53.0581 11.5547 53.1566 11.4331 53.1566C11.2174 53.1566 11.0431 53.3308 11.0431 53.5463C11.0431 53.8443 11.2863 54.0873 11.5845 54.0873C11.9883 54.0873 12.3164 53.7595 12.3164 53.3561C12.3164 52.822 11.8805 52.3864 11.3459 52.3864C10.6461 52.3864 10.0771 52.9549 10.0771 53.6541C10.0771 54.5595 10.8136 55.2954 11.7199 55.2954H16.7102C16.8318 55.2954 16.9305 55.3939 16.9305 55.5154C16.9305 55.6369 16.8318 55.7401 16.7102 55.7401Z" fill="white"/>
<path d="M17.0359 59.0919C16.2558 59.0919 15.6226 58.457 15.6226 57.6799C15.6226 57.0334 16.1503 56.5062 16.7973 56.5062C17.3411 56.5062 17.7816 56.9486 17.7816 57.4896C17.7816 57.9481 17.4076 58.3217 16.9487 58.3217C16.8271 58.3217 16.7285 58.2231 16.7285 58.1016C16.7285 57.9802 16.8271 57.8816 16.9487 57.8816C17.1644 57.8816 17.3388 57.7074 17.3388 57.4919C17.3388 57.1939 17.0956 56.9509 16.7973 56.9509C16.3935 56.9509 16.0654 57.2787 16.0654 57.6822C16.0654 58.2163 16.5013 58.6518 17.0359 58.6518C17.7357 58.6518 18.3047 58.0833 18.3047 57.3842C18.3047 56.4787 17.5682 55.7429 16.6619 55.7429C16.5403 55.7429 16.4417 55.6443 16.4417 55.5228C16.4417 55.4013 16.5403 55.3027 16.6619 55.3027C17.8114 55.3027 18.7475 56.238 18.7475 57.3864C18.7475 58.324 17.9789 59.0919 17.0359 59.0919Z" fill="white"/>
<path d="M42.9352 55.7472H37.9449C37.8233 55.7472 37.7246 55.6486 37.7246 55.5272C37.7246 55.4057 37.8233 55.3071 37.9449 55.3071H42.9352C43.8415 55.3071 44.578 54.5713 44.578 53.6658C44.578 52.9666 44.009 52.3981 43.3092 52.3981C42.7746 52.3981 42.3387 52.8337 42.3387 53.3678C42.3387 53.7712 42.6668 54.099 43.0706 54.099C43.3689 54.099 43.6121 53.8561 43.6121 53.5581C43.6121 53.3426 43.4377 53.1684 43.222 53.1684C43.1004 53.1684 43.0018 53.0698 43.0018 52.9483C43.0018 52.8268 43.1004 52.7282 43.222 52.7282C43.6809 52.7282 44.0549 53.1019 44.0549 53.5603C44.0549 54.1036 43.6121 54.5438 43.0706 54.5438C42.4213 54.5438 41.8959 54.0165 41.8959 53.3701C41.8959 52.5907 42.5291 51.958 43.3092 51.958C44.2545 51.958 45.0209 52.7259 45.0209 53.6681C45.0209 54.8142 44.0847 55.7472 42.9352 55.7472Z" fill="white"/>
<path d="M37.6193 59.0985C36.6763 59.0985 35.9077 58.3305 35.9077 57.3884C35.9077 56.2399 36.8438 55.3047 37.9933 55.3047C38.1149 55.3047 38.2136 55.4032 38.2136 55.5247C38.2136 55.6462 38.1149 55.7448 37.9933 55.7448C37.087 55.7448 36.3505 56.4806 36.3505 57.3861C36.3505 58.0853 36.9195 58.6538 37.6193 58.6538C38.1539 58.6538 38.5899 58.2182 38.5899 57.6841C38.5899 57.2807 38.2618 56.9529 37.858 56.9529C37.5597 56.9529 37.3165 57.1958 37.3165 57.4938C37.3165 57.7093 37.4909 57.8835 37.7065 57.8835C37.8281 57.8835 37.9268 57.9821 37.9268 58.1036C37.9268 58.2251 37.8281 58.3237 37.7065 58.3237C37.2476 58.3237 36.8737 57.95 36.8737 57.4916C36.8737 56.9483 37.3142 56.5082 37.858 56.5082C38.5073 56.5082 39.0327 57.0354 39.0327 57.6818C39.0327 58.4658 38.3994 59.0985 37.6193 59.0985Z" fill="white"/>
<path d="M27.9116 10.4297H26.8057V16.3209H27.9116V10.4297Z" fill="white"/>
<path d="M40.7602 15.6975C40.0764 14.8126 40.0443 13.5427 39.8263 12.5088C39.7988 12.369 39.6795 12.2613 39.5372 12.2498C37.603 12.0687 37.9495 10.62 37.9495 10.62L39.4455 6.072C39.4959 5.91383 39.4868 5.74191 39.4042 5.59979C39.044 4.96711 37.7086 5.31325 37.7086 5.31325C37.7086 5.31325 35.974 5.70523 34.6433 5.94134C34.4482 5.97572 34.2647 6.00552 34.0949 6.03303C33.792 6.07888 33.457 6.072 33.1175 6.03074C31.9473 5.8932 30.7359 5.37972 30.7359 5.37972C30.9424 6.57861 33.1358 7.29839 33.1358 7.29839C33.5465 7.84626 30.7359 9.90018 30.7359 9.90018C31.6284 10.4824 32.5278 9.86808 32.5278 9.86808C32.7779 11.2045 31.0089 12.7106 31.0089 12.7106C31.4058 13.2217 32.2731 12.8252 32.755 12.6166C32.7756 12.6097 32.794 12.6028 32.8123 12.5937C32.5921 13.3134 32.6907 14.0172 32.693 14.7599C32.693 14.9456 32.6769 15.1198 32.6448 15.2848C32.5439 15.7754 32.2846 16.1651 31.8303 16.4791C31.7018 16.5662 30.4491 17.1233 30.3779 16.9582C30.8598 18.0883 32.7205 17.7101 32.7205 17.7101C32.5944 19.6609 34.0123 20.5182 34.0123 20.5182C33.8402 19.56 34.7648 18.3611 34.7648 18.3611C34.6272 20.383 36.9331 22.4392 36.9331 22.4392C38.5116 21.1027 38.5185 18.705 38.5185 18.705C39.239 18.9113 39.4776 21.1027 39.4776 21.1027C40.9506 20.3486 40.6432 18.2603 40.6432 18.2603C42.1276 18.7623 42.855 17.419 43.0523 16.1697C42.2217 16.4952 41.3452 16.4516 40.7602 15.6975ZM36.8734 7.85772C36.2769 7.66517 35.9511 7.03019 36.1415 6.43648L36.9859 6.70697L37.3966 6.83764L38.296 7.12418C38.1055 7.72018 37.4677 8.04569 36.8734 7.85772Z" fill="white"/>
<path d="M37.3967 7.44983V6.64941H36.9883V7.0393C36.9883 7.26635 37.1718 7.44983 37.3967 7.44983Z" fill="white"/>
<path d="M32.856 15.2534C32.856 15.2534 32.7734 15.2695 32.638 15.2855C32.0896 15.3543 30.6602 15.4231 30.2266 14.4076C30.3069 14.5932 31.7156 13.9697 31.8579 13.8712C32.342 13.5388 32.6265 13.1284 32.7504 12.6173C32.8009 12.4109 32.8261 12.1909 32.8261 11.9502L32.856 15.2534Z" fill="white"/>
<path d="M35.4053 6.10236L33.1293 6.123C33.1293 6.123 33.1224 6.09089 33.1155 6.03126C33.0696 5.70789 32.9732 4.62768 33.7143 4.31348C33.5858 4.36852 34.0172 5.33865 34.0837 5.43726C34.242 5.6689 34.4256 5.83402 34.6436 5.94182C34.8615 6.04961 35.1139 6.10236 35.4053 6.10236Z" fill="white"/>
<path d="M39.778 5.99708L38.3325 10.5405C38.227 10.8797 38.3646 11.2442 38.6698 11.4299C39.4201 11.886 40.8862 12.4545 42.2124 11.0677C42.2124 11.0677 39.0025 11.4597 39.2939 10.0407C39.3536 9.75878 39.5348 9.51808 39.7826 9.36908C40.253 9.08713 41.2189 8.54385 41.9049 8.39255C43.0063 8.15415 43.433 9.27968 43.433 9.27968C43.433 9.27968 43.9952 5.79077 39.778 5.99708ZM40.3769 6.9782C40.1979 6.9782 40.051 6.83148 40.051 6.65039H40.7049C40.7049 6.83148 40.5558 6.9782 40.3769 6.9782Z" fill="white"/>
<path d="M34.2923 30.6347C34.8338 30.6347 35.3615 30.8226 35.7791 31.1665L35.9076 31.2719L35.8961 31.1046C35.8456 30.2885 36.1462 29.4931 36.7198 28.92L36.7336 28.9062L36.7473 28.92C37.3118 29.4839 37.6124 30.2656 37.5733 31.0656L37.5665 31.2238L37.6903 31.1275C38.1056 30.8066 38.6012 30.6347 39.1243 30.6347L39.1266 30.637C39.1266 31.3545 38.8008 32.0238 38.2364 32.4731L38.1079 32.574L38.2685 32.6015C38.6035 32.6588 38.9087 32.8147 39.1496 33.0531C38.8353 33.3602 38.42 33.5299 37.9794 33.5299C37.9748 33.5299 37.9703 33.5299 37.968 33.5299C37.3668 33.5253 36.8804 33.037 36.8552 32.4341L36.8506 32.3264C37.0089 32.5167 37.2108 32.6748 37.4242 32.794C37.8005 33.0049 38.2226 33.1195 38.6425 33.1287C37.9221 33.021 37.1076 32.5854 36.8827 31.8656C37.2315 31.9413 37.594 31.8702 37.9152 31.735C38.2938 31.5722 38.6242 31.3224 38.8812 31.0175C38.475 31.3911 37.8716 31.7029 37.3049 31.6731C37.0319 31.6593 36.8116 31.4416 36.8001 31.1665L36.7313 29.5389L36.6624 31.1665C36.651 31.4393 36.433 31.657 36.16 31.6731C35.5933 31.7052 34.9967 31.3843 34.5952 31.0037C35.0495 31.5585 35.8181 32.0169 36.5569 31.8679C36.3229 32.5969 35.4487 32.9912 34.7237 33.0622C35.3959 33.0714 36.1829 32.8284 36.6166 32.2851L36.6097 32.4341C36.5867 32.9866 36.1715 33.4588 35.6208 33.5184C35.5611 33.5253 35.4992 33.5276 35.4372 33.5276C34.9967 33.5276 34.5814 33.3579 34.2671 33.0508C34.508 32.8147 34.8132 32.6588 35.1481 32.5992L35.3088 32.5717L35.1803 32.4708C34.6135 32.0238 34.29 31.3544 34.29 30.6347H34.2923Z" fill="white"/>
<path d="M32.5582 37.7655C31.6129 37.7655 30.8442 36.9976 30.8442 36.0532C30.8442 35.1087 31.6129 34.3408 32.5582 34.3408C33.5035 34.3408 34.2721 35.1087 34.2721 36.0532C34.2721 36.9976 33.5035 37.7655 32.5582 37.7655ZM32.5582 34.758C31.8423 34.758 31.2618 35.3403 31.2618 36.0532C31.2618 36.7684 31.8446 37.3483 32.5582 37.3483C33.274 37.3483 33.8545 36.7661 33.8545 36.0532C33.8545 35.338 33.274 34.758 32.5582 34.758Z" fill="white"/>
<path d="M32.7873 37.6624C33.4209 37.6624 33.9346 37.1493 33.9346 36.5163C33.9346 35.8833 33.4209 35.3701 32.7873 35.3701C32.1538 35.3701 31.6401 35.8833 31.6401 36.5163C31.6401 37.1493 32.1538 37.6624 32.7873 37.6624Z" fill="white"/>
<path d="M36.7086 37.7655C35.7633 37.7655 34.9946 36.9976 34.9946 36.0532C34.9946 35.1087 35.7633 34.3408 36.7086 34.3408C37.6539 34.3408 38.4225 35.1087 38.4225 36.0532C38.4225 36.9976 37.6539 37.7655 36.7086 37.7655ZM36.7086 34.758C35.9927 34.758 35.4122 35.3403 35.4122 36.0532C35.4122 36.7684 35.995 37.3483 36.7086 37.3483C37.4244 37.3483 38.0049 36.7661 38.0049 36.0532C38.0072 35.338 37.4244 34.758 36.7086 34.758Z" fill="white"/>
<path d="M36.9402 37.6624C37.5738 37.6624 38.0874 37.1493 38.0874 36.5163C38.0874 35.8833 37.5738 35.3701 36.9402 35.3701C36.3066 35.3701 35.793 35.8833 35.793 36.5163C35.793 37.1493 36.3066 37.6624 36.9402 37.6624Z" fill="white"/>
<path d="M40.8614 37.7655C39.9161 37.7655 39.1475 36.9976 39.1475 36.0532C39.1475 35.1087 39.9161 34.3408 40.8614 34.3408C41.8067 34.3408 42.5753 35.1087 42.5753 36.0532C42.5753 36.9976 41.8067 37.7655 40.8614 37.7655ZM40.8614 34.758C40.1455 34.758 39.565 35.3403 39.565 36.0532C39.565 36.7684 40.1478 37.3483 40.8614 37.3483C41.5772 37.3483 42.1577 36.7661 42.1577 36.0532C42.1577 35.338 41.5749 34.758 40.8614 34.758Z" fill="white"/>
<path d="M41.0911 37.6624C41.7246 37.6624 42.2383 37.1493 42.2383 36.5163C42.2383 35.8833 41.7246 35.3701 41.0911 35.3701C40.4575 35.3701 39.9438 35.8833 39.9438 36.5163C39.9438 37.1493 40.4575 37.6624 41.0911 37.6624Z" fill="white"/>
<path d="M34.6343 41.287C33.689 41.287 32.9204 40.5191 32.9204 39.5747C32.9204 38.6302 33.689 37.8623 34.6343 37.8623C35.5796 37.8623 36.3483 38.6302 36.3483 39.5747C36.346 40.5191 35.5773 41.287 34.6343 41.287ZM34.6343 38.2795C33.9185 38.2795 33.338 38.8618 33.338 39.5747C33.338 40.2876 33.9208 40.8698 34.6343 40.8698C35.3502 40.8698 35.9307 40.2876 35.9307 39.5747C35.9307 38.8618 35.3479 38.2795 34.6343 38.2795Z" fill="white"/>
<path d="M34.8635 41.1839C35.4971 41.1839 36.0107 40.6708 36.0107 40.0378C36.0107 39.4048 35.4971 38.8916 34.8635 38.8916C34.2299 38.8916 33.7163 39.4048 33.7163 40.0378C33.7163 40.6708 34.2299 41.1839 34.8635 41.1839Z" fill="white"/>
<path d="M38.7847 41.287C37.8394 41.287 37.0708 40.5191 37.0708 39.5747C37.0708 38.6302 37.8394 37.8623 38.7847 37.8623C39.73 37.8623 40.4987 38.6302 40.4987 39.5747C40.4987 40.5191 39.73 41.287 38.7847 41.287ZM38.7847 38.2795C38.0689 38.2795 37.4884 38.8618 37.4884 39.5747C37.4884 40.2876 38.0712 40.8698 38.7847 40.8698C39.5006 40.8698 40.0811 40.2876 40.0811 39.5747C40.0811 38.8618 39.5006 38.2795 38.7847 38.2795Z" fill="white"/>
<path d="M39.0163 41.1839C39.6499 41.1839 40.1636 40.6708 40.1636 40.0378C40.1636 39.4048 39.6499 38.8916 39.0163 38.8916C38.3828 38.8916 37.8691 39.4048 37.8691 40.0378C37.8691 40.6708 38.3828 41.1839 39.0163 41.1839Z" fill="white"/>
<path d="M36.7086 44.8075C35.7633 44.8075 34.9946 44.0396 34.9946 43.0952C34.9946 42.1507 35.7633 41.3828 36.7086 41.3828C37.6539 41.3828 38.4225 42.1507 38.4225 43.0952C38.4225 44.0396 37.6539 44.8075 36.7086 44.8075ZM36.7086 41.8C35.9927 41.8 35.4122 42.3823 35.4122 43.0952C35.4122 43.8104 35.995 44.3903 36.7086 44.3903C37.4244 44.3903 38.0049 43.8081 38.0049 43.0952C38.0072 42.38 37.4244 41.8 36.7086 41.8Z" fill="white"/>
<path d="M36.9402 44.7044C37.5738 44.7044 38.0874 44.1913 38.0874 43.5583C38.0874 42.9253 37.5738 42.4121 36.9402 42.4121C36.3066 42.4121 35.793 42.9253 35.793 43.5583C35.793 44.1913 36.3066 44.7044 36.9402 44.7044Z" fill="white"/>
</svg>
